<?xml version="1.0" standalone="no"?>
<!DOCTYPE svg PUBLIC "-//W3C//DTD SVG 1.1//EN" "http://www.w3.org/Graphics/SVG/1.1/DTD/svg11.dtd" >
<svg xmlns="http://www.w3.org/2000/svg">
<metadata></metadata>
<defs>
<font id="EffraLightRegular" horiz-adv-x="1116" >
<font-face units-per-em="2048" ascent="1638" descent="-410" />
<missing-glyph horiz-adv-x="370" />
<glyph unicode="&#xfb01;" horiz-adv-x="1048" d="M31 856v86h188v90q0 174 97.5 270.5t267.5 96.5q179 0 288 -109l-59 -65q-51 43 -99 68.5t-128 25.5q-275 0 -275 -293v-84h592v-942h-92v856h-500v-856h-92v856h-188z" />
<glyph unicode="&#xfb02;" horiz-adv-x="1071" d="M31 856v86h188v74q0 180 95.5 281.5t298 101.5t317.5 -86v-1313h-92v1270q-85 49 -233 49t-221 -70.5t-73 -238.5v-68h312v-86h-312v-856h-92v856h-188z" />
<glyph unicode="&#xfb03;" horiz-adv-x="1665" d="M31 856v86h188v90q0 174 74 270.5t215 96.5q161 0 256 -109l-59 -57q-82 82 -187 82q-100 0 -148 -57q-59 -70 -59 -232v-84h525v90q0 174 97 270.5t267 96.5q180 0 289 -109l-59 -65q-51 43 -99.5 68.5t-128.5 25.5q-274 0 -274 -293v-84h592v-942h-93v856h-499v-856 h-92v856h-525v-856h-92v856h-188z" />
<glyph unicode="&#xfb04;" horiz-adv-x="1687" d="M31 856v86h188v90q0 174 74 270.5t215 96.5q161 0 256 -109l-59 -57q-82 82 -187 82q-100 0 -148 -57q-59 -70 -59 -232v-84h525v74q0 180 95 281.5t298.5 101.5t316.5 -86v-1313h-92v1270q-85 49 -233 49t-220.5 -70.5t-72.5 -238.5v-68h311v-86h-311v-856h-92v856h-525 v-856h-92v856h-188z" />
<glyph horiz-adv-x="0" />
<glyph horiz-adv-x="2048" />
<glyph unicode="&#xd;" horiz-adv-x="358" />
<glyph unicode=" "  horiz-adv-x="370" />
<glyph unicode="&#x09;" horiz-adv-x="370" />
<glyph unicode="&#xa0;" horiz-adv-x="370" />
<glyph unicode="!" horiz-adv-x="458" d="M164 0v133h129v-133h-129zM176 1366h107l-9 -1026h-90z" />
<glyph unicode="&#x22;" horiz-adv-x="669" d="M168 948v418h92v-418h-92zM434 948v418h92v-418h-92z" />
<glyph unicode="#" horiz-adv-x="1576" d="M125 381v78h348l92 352h-317v78h340l102 383h88l-102 -383h387l102 383h88l-102 -383h301v-78h-324l-92 -352h293v-78h-315l-103 -381h-88l103 381h-387l-103 -381h-88l103 381h-326zM561 459h387l92 352h-387z" />
<glyph unicode="$" d="M121 172l69 68q63 -78 145.5 -127.5t215.5 -53.5v584q-27 6 -83 23.5t-118.5 49.5t-99.5 72q-70 77 -70 211q0 135 93 222q101 94 278 102v170h84v-170q180 -15 279 -124q28 -30 47 -56l-66 -58q-105 131 -260 148v-514q177 -55 259 -129q112 -101 112 -266 q0 -149 -103 -244q-98 -90 -268 -109v-159h-84v155q-282 6 -430 205zM276 1006q0 -45 9.5 -83t38.5 -69q54 -59 227 -115v494q-206 -11 -259 -143q-16 -39 -16 -84zM635 61q272 27 272 269q0 109 -60 173q-59 63 -212 115v-557z" />
<glyph unicode="%" horiz-adv-x="1720" d="M84 961q0 178 86 272t219 94q215 0 285 -209q23 -69 23 -157q0 -178 -86.5 -274.5t-220.5 -96.5t-220 96t-86 275zM178 961q0 -151 68 -228q58 -65 144 -65q38 0 76 15t69 50q67 77 67 228t-67 226q-56 62 -146 62q-142 0 -192 -151q-19 -56 -19 -137zM391 0l831 1290 h105l-832 -1290h-104zM1024 359q0 178 86 272t219 94q215 0 285 -209q23 -69 23 -157q0 -178 -86.5 -274.5t-220.5 -96.5t-220 96t-86 275zM1118 359q0 -151 68 -228q58 -65 144 -65q38 0 76 15t69 50q67 77 67 228t-67 226q-56 62 -146 62q-142 0 -192 -151 q-19 -56 -19 -137z" />
<glyph unicode="&#x26;" horiz-adv-x="1292" d="M113 325q0 152 84 256.5t217 188.5l-58 72q-104 127 -104 268q0 114 83 199q88 90 224.5 90t210.5 -52.5t127 -166.5l-72 -43q-53 106 -112.5 141t-126 35t-108.5 -17.5t-70 -45.5q-56 -56 -56 -132t35 -141.5t107 -147.5l446 -495l182 246l74 -54l-195 -260l240 -266 h-123l-176 190q-89 -102 -159 -144q-132 -79 -246.5 -79t-189.5 28t-127 77q-107 101 -107 253zM219 334q0 -119 80 -195q84 -80 223 -80q162 0 289 124q37 36 70 75l-406 444q-127 -78 -191.5 -160.5t-64.5 -207.5z" />
<glyph unicode="'" horiz-adv-x="362" d="M135 948v418h92v-418h-92z" />
<glyph unicode="(" horiz-adv-x="573" d="M145 629q0 260 85 515q62 182 143 302h88q-99 -194 -132 -304q-77 -250 -77 -513t74 -504q36 -121 135 -315h-88q-139 206 -203 539q-25 130 -25 280z" />
<glyph unicode=")" horiz-adv-x="573" d="M113 -190q96 188 131 302q78 252 78 517q0 385 -142 679q-37 76 -67 138h88q140 -208 203 -538q24 -130 24 -279q0 -265 -85 -517q-59 -175 -142 -302h-88z" />
<glyph unicode="*" horiz-adv-x="1028" d="M145 897l306 164l-306 164l43 75l295 -184l-12 346h86l-12 -346l295 184l43 -75l-305 -164l305 -164l-43 -76l-295 185l12 -347h-86l12 347l-295 -185z" />
<glyph unicode="+" d="M147 610v92h365v355h92v-355h365v-92h-361v-356h-94v356h-367z" />
<glyph unicode="," horiz-adv-x="446" d="M139 -160l66 160h-49v141h135v-141l-90 -160h-62z" />
<glyph unicode="-" horiz-adv-x="894" d="M166 530v93h563v-93h-563z" />
<glyph unicode="." horiz-adv-x="448" d="M154 -4v143h139v-143h-139z" />
<glyph unicode="/" horiz-adv-x="768" d="M61 -33l545 1436h101l-545 -1436h-101z" />
<glyph unicode="0" d="M84 655q0 313 126 494q124 178 347 178q222 0 347 -178q126 -178 126 -494q0 -314 -126 -497q-125 -183 -347 -183t-347 183q-126 185 -126 497zM188 655q0 -279 95.5 -432t273.5 -153t273.5 153.5t95.5 431.5q0 279 -95.5 429.5t-273.5 150.5t-273.5 -150.5 t-95.5 -429.5z" />
<glyph unicode="1" d="M229 1118l336 189h99v-1217h243v-90h-585v90h243v1114l-295 -160z" />
<glyph unicode="2" d="M160 0v90q0 109 62 194q74 100 226 221q219 176 276.5 247t82 126.5t24.5 110.5t-16 98t-50 76q-74 72 -206 72q-170 0 -271 -111q-26 -30 -46 -57l-74 51q77 133 240 188q65 21 154 21t161 -26.5t120 -71.5q95 -89 95 -236q0 -144 -101 -267q-69 -84 -227 -210 q-53 -43 -98 -79t-104 -87q-140 -122 -140 -258h690v-92h-798z" />
<glyph unicode="3" d="M115 102l61 78q65 -52 110 -73q104 -48 242 -48t228 84t90 230q0 148 -88 223q-80 68 -213 68q-60 0 -148 -25l-39 68l416 497h-567v90h692v-88l-401 -465q36 9 92.5 9t127 -26t120.5 -74q108 -102 108 -277q0 -196 -130 -305q-121 -101 -316 -101q-196 0 -333 97 q-32 22 -52 38z" />
<glyph unicode="4" d="M127 299v90l623 905h102v-905h149v-90h-149v-299h-96v299h-629zM229 389h527v764z" />
<glyph unicode="5" d="M121 98l59 78q57 -43 134 -80t171.5 -37t159 23.5t109.5 65.5q94 88 94 231q0 209 -152 285q-59 30 -156 30q-149 0 -272 -78l-49 37l109 641h575v-92h-502l-75 -471q113 55 231 55q282 0 367 -224q30 -77 30 -173t-30.5 -172t-89.5 -131q-126 -119 -336 -119 q-214 0 -377 131z" />
<glyph unicode="6" d="M154 563q0 377 136 568.5t386 191.5q92 0 158.5 -29.5t97.5 -56.5l-51 -76q-88 70 -203.5 70t-191.5 -45t-126 -121q-93 -143 -106 -381q141 123 341 123t299 -110.5t99 -315.5q0 -198 -131 -313q-115 -101 -268 -101q-440 0 -440 596zM252 510q0 -306 178 -413 q64 -38 136.5 -38t127 19.5t98.5 58.5q103 91 103 242q0 154 -59 233q-73 99 -262.5 99t-319.5 -136q-2 -10 -2 -27v-38z" />
<glyph unicode="7" d="M156 1202v92h809v-90q-168 -280 -382 -790q-110 -263 -155 -414h-111q91 273 218 555q207 462 317 647h-696z" />
<glyph unicode="8" d="M117 319q0 135 110 240q67 65 209 131q-127 62 -171 110q-81 88 -81 210q0 141 96 226q103 91 277 91q172 0 277 -90q96 -83 96 -211q0 -222 -264 -334q185 -62 282 -202q49 -70 49 -151t-23.5 -143.5t-76.5 -113.5q-120 -115 -340 -115t-340 115q-100 96 -100 237z M221 316.5q0 -64.5 31 -114.5t79 -83q90 -62 226 -62q217 0 304 145q30 50 30 114.5t-28.5 113.5t-78.5 89q-94 76 -241 126q-229 -77 -297 -215q-25 -49 -25 -113.5zM283 1010q0 -187 274 -275q129 45 201.5 112.5t72.5 169t-71.5 161t-202.5 59.5t-202.5 -61.5 t-71.5 -165.5z" />
<glyph unicode="9" d="M113 913q0 199 131 314q115 100 268 100q440 0 440 -596q0 -377 -136 -568.5t-386 -191.5q-92 0 -158.5 30t-97.5 56l51 76q88 -70 203.5 -70t191.5 45.5t126 121.5q93 142 106 380q-141 -123 -341 -123t-299 111t-99 315zM211 915q0 -154 59 -233q72 -98 262.5 -98 t319.5 135q2 10 2 27v38q0 306 -178 413q-64 38 -136.5 38t-127 -19.5t-98.5 -58.5q-103 -91 -103 -242z" />
<glyph unicode=":" horiz-adv-x="448" d="M166 -4v143h139v-143h-139zM166 803v143h139v-143h-139z" />
<glyph unicode=";" horiz-adv-x="448" d="M151 -160l66 160h-49v141h135v-141l-90 -160h-62zM166 803v143h139v-143h-139z" />
<glyph unicode="&#x3c;" d="M150 616v78l776 389l43 -84l-695 -344l695 -344l-41 -84z" />
<glyph unicode="=" d="M147 424v92h822v-92h-822zM147 778v92h822v-92h-822z" />
<glyph unicode="&#x3e;" d="M147 311l695 344l-695 344l41 84l779 -389v-78l-777 -389z" />
<glyph unicode="?" horiz-adv-x="1015" d="M90 1204q63 78 167.5 136.5t225.5 58.5t199 -24.5t130 -67.5q108 -89 108 -232q0 -162 -150 -281q-47 -38 -93 -72t-79 -62.5t-58 -64.5q-53 -79 -53 -187v-68h-90v78q0 190 151 312q42 34 82 63t72.5 56.5t59.5 60.5q57 73 57 176.5t-89 162t-215 58.5t-208 -41 t-151 -125zM379 0v133h129v-133h-129z" />
<glyph unicode="@" horiz-adv-x="1953" d="M115 594q0 384 260 605q238 202 604 202q388 0 621 -203q243 -213 243 -588q0 -338 -125 -508q-101 -135 -248 -135q-128 0 -191 83q-26 34 -36 87q-64 -85 -172 -131q-132 -58 -290 -20q-128 30 -185 137q-29 55 -29 129t23.5 134t73 105.5t128 72t201 26.5t250.5 -19 v54q0 141 -73.5 195t-199 54t-191.5 -34.5t-103 -65.5l-55 72q86 77 227 110q53 13 113 13q182 0 280 -75t100 -255v-430q0 -128 83 -149q24 -7 63 -7t86 29t84 96q84 150 84 432q0 338 -217 525q-206 176 -545 176q-311 0 -517 -161q-108 -85 -175.5 -222t-67.5 -334 q0 -199 81 -358q46 -90 146 -193l-67 -63q-172 149 -239 410q-25 95 -25 204zM676 261.5q0 -95.5 61.5 -145.5t149.5 -50t148.5 21.5t107.5 56.5q102 78 102 186v151q-134 21 -254.5 21t-180.5 -25.5t-90 -63.5q-44 -56 -44 -151.5z" />
<glyph unicode="A" horiz-adv-x="1298" d="M41 0l559 1366h98l559 -1366h-112l-178 440h-643l-177 -440h-106zM360 532h570l-285 709z" />
<glyph unicode="B" horiz-adv-x="1189" d="M176 0v1366h453q189 0 289 -101q86 -87 86 -235q0 -111 -69 -202q-68 -89 -177 -109q216 -33 292 -193q31 -63 31 -165.5t-41 -173t-112 -112.5q-125 -75 -361 -75h-391zM274 92h269q202 0 280 35t117 90t39 149.5t-38 153t-97 90.5q-104 56 -269 56h-301v-574zM274 758 h299q210 0 297 144q31 50 31 127t-29.5 126t-76.5 75q-77 44 -222 44h-299v-516z" />
<glyph unicode="C" horiz-adv-x="1376" d="M115 684q0 305 181 507q187 208 478 208q206 0 358 -110q89 -65 140 -150l-74 -52q-12 16 -40 52.5t-78 72.5q-129 95 -281 95t-255.5 -48.5t-175.5 -132.5q-147 -173 -147 -442q0 -265 149 -443q154 -182 414 -182q163 0 292 95q69 50 122 125l74 -52 q-92 -153 -289 -227q-88 -33 -222 -33t-256 54.5t-209 150.5q-181 200 -181 512z" />
<glyph unicode="D" horiz-adv-x="1427" d="M176 0v1366h373q350 0 549 -163q215 -175 215 -519q0 -342 -215 -520q-198 -164 -549 -164h-373zM274 92h295q299 0 465 146q174 152 174 446q0 291 -177 444q-168 146 -478 146h-279v-1182z" />
<glyph unicode="E" horiz-adv-x="1140" d="M176 0v1366h819v-92h-721v-516h564v-92h-564v-574h775v-92h-873z" />
<glyph unicode="F" horiz-adv-x="1069" d="M176 0v1366h819v-92h-721v-516h564v-92h-564v-666h-98z" />
<glyph unicode="G" horiz-adv-x="1468" d="M115 684q0 303 183 507q87 97 210 152.5t257 55.5t221 -33t146 -77q89 -66 140 -150l-74 -52q-12 16 -41 52.5t-79 72.5q-129 95 -276 95t-252.5 -48.5t-177.5 -132.5q-151 -174 -151 -442q0 -269 149 -443q155 -182 413.5 -182t420.5 117v379h-364v92h463v-512 q-190 -168 -525 -168q-297 0 -480 200t-183 517z" />
<glyph unicode="H" horiz-adv-x="1409" d="M176 0v1366h98v-608h861v608h98v-1366h-98v666h-861v-666h-98z" />
<glyph unicode="I" horiz-adv-x="450" d="M176 0v1366h98v-1366h-98z" />
<glyph unicode="J" horiz-adv-x="964" d="M43 145l74 62q123 -148 289 -148q294 0 294 361v946h99v-963q0 -227 -104.5 -331.5t-295.5 -104.5q-220 0 -356 178z" />
<glyph unicode="K" horiz-adv-x="1177" d="M176 0v1366h98v-713l672 713h121l-516 -551l586 -815h-117l-541 741l-205 -219v-522h-98z" />
<glyph unicode="L" horiz-adv-x="1105" d="M176 0v1366h98v-1274h775v-92h-873z" />
<glyph unicode="M" horiz-adv-x="1603" d="M160 0l61 1366h107l475 -811l485 811h94l62 -1366h-98l-48 1212l-471 -782h-63l-459 780l-47 -1210h-98z" />
<glyph unicode="N" horiz-adv-x="1427" d="M176 0v1366h103l876 -1219v1219h96v-1366h-102l-877 1202v-1202h-96z" />
<glyph unicode="O" horiz-adv-x="1585" d="M115 682q0 150 51 281t141 228q193 208 486 208q147 0 271 -55.5t214 -152.5t141 -228.5t51 -282t-51 -280.5t-141 -226t-214 -151.5t-271 -55.5t-271.5 55.5t-214.5 151.5q-192 205 -192 508zM219 682q0 -263 157 -441q161 -182 417 -182q257 0 417 182q156 179 156 441 q0 266 -156 442q-75 84 -181.5 133.5t-235.5 49.5q-254 0 -417 -183q-157 -176 -157 -442z" />
<glyph unicode="P" horiz-adv-x="1185" d="M176 0v1366h420q369 0 450 -238q25 -71 25 -155q0 -393 -475 -393h-322v-580h-98zM274 672h351q340 0 340 301t-340 301h-351v-602z" />
<glyph unicode="Q" horiz-adv-x="1585" d="M115 682q0 150 51 281t141 228q193 208 486 208q147 0 271 -55.5t214 -152.5t141 -228.5t51 -296t-70.5 -312t-193.5 -245.5l178 -207l-71 -60l-183 213q-159 -88 -321.5 -88t-287 55.5t-214.5 151.5q-192 205 -192 508zM219 682q0 -263 157 -441q161 -182 417 -182 q154 0 276 68l-190 225l71 60l197 -232q104 86 161.5 216t57.5 272.5t-41 257t-115.5 198.5t-181 133.5t-235.5 49.5q-254 0 -417 -183q-157 -176 -157 -442z" />
<glyph unicode="R" horiz-adv-x="1220" d="M176 0v1366h412q373 0 458 -232q25 -71 25 -155q0 -133 -68.5 -236.5t-218.5 -138.5l326 -604h-113l-317 592h-406v-592h-98zM274 684h355q338 0 338 295t-351 295h-342v-590z" />
<glyph unicode="S" horiz-adv-x="1155" d="M96 180l72 70q159 -191 403 -191q163 0 261 73q102 75 102 216q0 197 -220 276q-63 23 -133.5 42.5t-148.5 45t-140 67.5q-136 93 -136 274q0 147 112 243q119 103 312 103q152 0 269 -65q85 -46 140 -124l-69 -59q-114 158 -345 158q-157 0 -243 -82q-76 -72 -76 -162 t34 -138t89 -80q73 -42 203.5 -75.5t202 -61.5t127.5 -74q128 -104 128 -288q0 -171 -136 -278q-129 -103 -333 -103q-157 0 -293 67q-119 57 -182 146z" />
<glyph unicode="T" horiz-adv-x="1261" d="M51 1278v88h1159v-88h-530v-1278h-98v1278h-531z" />
<glyph unicode="U" horiz-adv-x="1376" d="M166 545v821h98v-770q0 -258 85 -385q101 -152 339 -152q345 0 406 322q18 98 18 215v770h98v-821q0 -578 -522 -578t-522 578z" />
<glyph unicode="V" horiz-adv-x="1290" d="M37 1366h113l499 -1245l498 1245h106l-559 -1366h-98z" />
<glyph unicode="W" horiz-adv-x="1789" d="M61 1366h111l328 -1227l346 1186h121l329 -1178l326 1219h107l-383 -1366h-109l-334 1180l-350 -1180h-115z" />
<glyph unicode="X" horiz-adv-x="1204" d="M35 0l510 711l-469 655h119l405 -573l410 573h114l-467 -649l512 -717h-118l-449 635l-452 -635h-115z" />
<glyph unicode="Y" horiz-adv-x="1105" d="M33 1366h119l403 -643l403 643h115l-471 -739v-627h-98v627z" />
<glyph unicode="Z" horiz-adv-x="1261" d="M100 0v90l920 1184h-875v92h1002v-90l-920 -1184h934v-92h-1061z" />
<glyph unicode="[" horiz-adv-x="598" d="M176 -190v1636h361v-88h-265v-1460h265v-88h-361z" />
<glyph unicode="\" horiz-adv-x="768" d="M61 1403h101l545 -1436h-101z" />
<glyph unicode="]" horiz-adv-x="598" d="M61 -102h265v1460h-265v88h361v-1636h-361v88z" />
<glyph unicode="^" horiz-adv-x="1081" d="M131 631l375 735h72l374 -735h-102l-311 624l-310 -624h-98z" />
<glyph unicode="_" horiz-adv-x="1048" d="M12 -158h1024v-92h-1024v92z" />
<glyph unicode="`" horiz-adv-x="741" d="M250 1372h119l123 -262h-86z" />
<glyph unicode="a" horiz-adv-x="1007" d="M98 248q0 76 22.5 136t71.5 104q108 96 316 96q145 0 268 -21v53q0 216 -164 254q-53 13 -146 13q-149 0 -267 -99l-49 64q39 37 125.5 78t211.5 41q182 0 281.5 -78t99.5 -258v-517q0 -42 6 -114h-88q-2 18 -3 39.5t-1 50.5v68q-128 -183 -352 -183t-302 143 q-30 54 -30 130zM197 256q0 -102 68.5 -149.5t156.5 -47.5t149.5 25t107.5 66q99 87 99 198v133q-107 25 -241.5 25t-196 -25.5t-93.5 -63.5q-50 -59 -50 -161z" />
<glyph unicode="b" horiz-adv-x="1097" d="M141 35v1331h92v-592q112 193 347 193q209 0 320 -143q104 -132 104 -355q0 -233 -151 -365q-146 -129 -362 -129t-350 60zM231 98q116 -37 229 -37t190 26t134 77q121 107 121 307q0 281 -180 375q-63 33 -152.5 33t-153 -37t-105.5 -92q-83 -110 -83 -248v-404z" />
<glyph unicode="c" horiz-adv-x="1013" d="M94 471q0 212 136 353q136 143 337 143q229 0 361 -166l-70 -53q-102 133 -291 133q-159 0 -269 -121q-105 -116 -105 -289q0 -170 107 -289q109 -121 267 -121q102 0 181 37t126 99l66 -58q-59 -72 -154.5 -118t-208 -46t-199.5 38t-150 105q-134 139 -134 353z" />
<glyph unicode="d" horiz-adv-x="1101" d="M94 463q0 228 136 367q136 137 366 137q122 0 270 -90v489h90v-1246q0 -36 1 -66t4 -54h-91q-2 27 -3 51.5t-1 54.5v58q-57 -98 -190 -159q-66 -30 -166.5 -30t-180 38t-131.5 103q-104 130 -104 347zM193 461q0 -274 179 -367q64 -33 153 -33t152.5 32t105.5 79 q83 93 83 193v411q-112 105 -288 105q-161 0 -266 -99q-119 -112 -119 -321z" />
<glyph unicode="e" horiz-adv-x="1093" d="M94 471q0 206 128 351t327 145t323 -133q127 -139 127 -388h-802q4 -163 108 -273q106 -112 270 -112q141 0 257 81q36 24 61 55l65 -56q-61 -78 -166.5 -122t-213 -44t-196.5 36t-152 101q-136 140 -136 359zM199 526h700q-18 174 -110.5 264.5t-239.5 90.5 q-148 0 -246 -104q-96 -102 -104 -251z" />
<glyph unicode="f" horiz-adv-x="645" d="M31 856v86h188v109q0 168 75 258t216 90q159 0 254 -109l-59 -57q-82 82 -187 82q-100 0 -148 -59q-59 -71 -59 -242v-72h312v-86h-312v-856h-92v856h-188z" />
<glyph unicode="g" horiz-adv-x="1093" d="M94 463q0 227 150 367q148 137 357.5 137t354.5 -66v-881q0 -454 -448 -454q-168 0 -290 76q-30 18 -46 32l53 70q110 -90 287 -90q281 0 336 217q16 66 16 143v144q-61 -98 -192 -155q-64 -28 -163.5 -28t-179 38t-131.5 103q-104 130 -104 347zM193 461 q0 -274 179 -367q64 -33 155 -33t154.5 34t104.5 82t60.5 100.5t19.5 87.5v473q-111 43 -224.5 43t-189 -28t-134.5 -81q-125 -114 -125 -311z" />
<glyph unicode="h" horiz-adv-x="1089" d="M141 0v1366h92v-612q70 135 225 192q60 21 149 21t158 -29t112 -83q79 -99 79 -302v-553h-92v522q0 292 -160 342q-53 17 -131.5 17t-144.5 -37t-109 -94q-86 -116 -86 -265v-485h-92z" />
<glyph unicode="i" horiz-adv-x="382" d="M127 1141v133h129v-133h-129zM145 0v942h93v-942h-93z" />
<glyph unicode="j" horiz-adv-x="382" d="M-195 -336l50 68q68 -60 137 -60q71 0 108 52q45 64 45 233v985h93v-971q0 -194 -48 -280q-57 -101 -202 -101q-59 0 -107.5 22.5t-75.5 51.5zM127 1141v133h129v-133h-129z" />
<glyph unicode="k" horiz-adv-x="929" d="M141 0v1366h92v-895l484 471h121l-361 -350l432 -592h-110l-387 526l-179 -172v-354h-92z" />
<glyph unicode="l" horiz-adv-x="374" d="M141 0v1366h92v-1366h-92z" />
<glyph unicode="m" horiz-adv-x="1734" d="M141 942h86q6 -69 6 -114v-83q75 145 219 199q60 23 138 23q137 0 208.5 -58.5t100.5 -165.5v2q35 73 125 140q110 82 246 82q263 0 316 -243q16 -77 16 -171v-553h-93v522q0 204 -65 285q-60 74 -187 74q-135 0 -238 -105q-99 -101 -99 -233v-543h-93v522 q0 292 -142 342q-46 17 -118.5 17t-136 -37t-106.5 -94q-86 -116 -86 -265v-485h-93v860q0 38 -4 82z" />
<glyph unicode="n" horiz-adv-x="1093" d="M141 942h86q6 -69 6 -114v-83q74 144 225 199q62 23 152 23t159 -29t112 -83q80 -100 80 -302v-553h-93v522q0 292 -160 342q-53 17 -131.5 17t-144 -37t-108.5 -94q-86 -116 -86 -265v-485h-93v860q0 38 -4 82z" />
<glyph unicode="o" horiz-adv-x="1159" d="M94 471q0 206 142 351q144 145 344 145q199 0 342 -145t143 -351t-143 -351t-342 -145q-200 0 -344 145q-142 145 -142 351zM190 471q0 -162 114 -289q112 -123 277 -123q81 0 152.5 33t123.5 88q112 120 112 291q0 162 -114 289q-112 123 -275 123q-164 0 -278 -121 q-112 -118 -112 -291z" />
<glyph unicode="p" horiz-adv-x="1101" d="M141 942h86q2 -28 4 -61t3.5 -56.5t1.5 -56.5q40 72 90 111q111 88 239 88t207.5 -39t131.5 -106q104 -136 104 -357q0 -219 -136 -355q-135 -135 -342 -135q-100 0 -171.5 28t-122.5 56v-469h-91v1278q0 30 -4 74zM236 164l38 -28q106 -75 256 -75q164 0 269 105 q110 110 110 299q0 286 -179 382q-64 34 -141 34t-127 -18.5t-89 -50.5q-117 -96 -132 -249q-5 -51 -5 -104v-295z" />
<glyph unicode="q" horiz-adv-x="1097" d="M94 463q0 227 150 367q148 137 357.5 137t354.5 -66v-1311h-92v568q-63 -101 -188 -155q-66 -28 -166.5 -28t-180 38t-131.5 103q-104 130 -104 347zM193 461q0 -274 179 -367q64 -33 156 -33q166 0 262 119q39 49 57.5 100.5t18.5 84.5v473q-111 43 -224.5 43t-189 -28 t-134.5 -81q-125 -114 -125 -311z" />
<glyph unicode="r" horiz-adv-x="690" d="M141 942h86q6 -69 6 -118v-89q44 86 101 129q117 88 248 88q45 0 77 -14l-26 -88q-23 10 -83.5 10t-119.5 -32.5t-102 -85.5q-90 -112 -90 -261v-481h-93v860q0 38 -4 82z" />
<glyph unicode="s" horiz-adv-x="946" d="M84 119l59 65q123 -123 318 -123q119 0 199 45q83 46 83 132q0 94 -81 138q-49 26 -176.5 55t-181.5 49t-93 48q-84 62 -84 183q0 120 105 192q95 64 223 64q231 0 352 -146l-64 -57q-110 119 -268 119q-254 0 -254 -176q0 -114 187 -161q53 -14 108 -26t113.5 -30.5 t106.5 -47.5q108 -67 108 -192q0 -132 -119 -208q-104 -67 -247 -67q-250 0 -394 144z" />
<glyph unicode="t" horiz-adv-x="727" d="M37 856v86h188v311h92v-311h312v-86h-312v-545q0 -157 49 -209q39 -43 105.5 -43t103.5 18.5t74 63.5l58 -55q-41 -53 -93.5 -82t-122 -29t-116.5 13.5t-80 49.5q-70 76 -70 251v567h-188z" />
<glyph unicode="u" horiz-adv-x="1081" d="M133 389v553h92v-522q0 -292 156 -342q51 -17 129 -17t143.5 37t107.5 94q83 114 83 265v485h92v-860q0 -36 4 -82h-86q-6 69 -6 112v85q-75 -145 -220 -199q-61 -23 -151 -23t-157.5 29t-109.5 83q-77 99 -77 302z" />
<glyph unicode="v" horiz-adv-x="948" d="M20 942h105l354 -829l352 829h97l-410 -942h-86z" />
<glyph unicode="w" horiz-adv-x="1392" d="M31 942h102l262 -821l271 821h88l264 -836l250 836h94l-301 -942h-100l-261 803l-264 -803h-88z" />
<glyph unicode="x" horiz-adv-x="933" d="M31 0l372 504l-333 438h114l283 -371l274 371h103l-326 -438l385 -504h-115l-333 436l-322 -436h-102z" />
<glyph unicode="y" horiz-adv-x="946" d="M33 942h104l363 -817l313 817h100l-462 -1165q-82 -211 -236 -211q-100 0 -170 63l47 66q47 -47 115.5 -47t102.5 43t65 123l78 198z" />
<glyph unicode="z" horiz-adv-x="985" d="M125 0v86l631 774h-606v82h716v-86l-635 -772h650v-84h-756z" />
<glyph unicode="{" horiz-adv-x="544" d="M63 592v74q78 10 120 65t46 119l29 348q16 178 100 248h105q-94 -94 -105 -225l-26 -369q-14 -179 -158 -223q59 -18 104.5 -68.5t53.5 -150.5l26 -375q10 -132 105 -225h-105q-84 70 -100 247l-29 351q-4 63 -46 118.5t-120 65.5z" />
<glyph unicode="|" horiz-adv-x="440" d="M176 -336v2042h88v-2042h-88z" />
<glyph unicode="}" horiz-adv-x="544" d="M82 -190q94 94 104 225l27 375q14 173 158 219q-144 44 -158 223l-27 369q-10 131 -104 225h104q85 -71 101 -248l28 -348q4 -63 46 -118.5t120 -65.5v-74q-78 -10 -120 -65.5t-46 -118.5l-28 -351q-16 -178 -101 -247h-104z" />
<glyph unicode="~" horiz-adv-x="909" d="M98 602q6 6 20.5 24.5t41.5 39.5q69 53 135.5 53t101.5 -15.5t70 -34.5q88 -48 141 -48t92 28.5t56 50.5l53 -63q-35 -58 -121 -91q-35 -14 -86 -14t-86 15.5t-70 34.5q-91 51 -139 51q-80 0 -149 -86z" />
<glyph unicode="&#xa1;" horiz-adv-x="458" d="M166 809v133h129v-133h-129zM176 -424l8 1026h90l9 -1026h-107z" />
<glyph unicode="&#xa2;" d="M145 643q0 197 121 338q117 138 299 160v188h84v-186q201 -7 330 -164l-70 -53q-98 124 -260 131v-828q181 12 277 136l63 -60q-120 -148 -340 -162v-182h-84v184q-183 16 -303 159q-117 139 -117 339zM244 643q0 -157 90 -271q92 -117 231 -139v822 q-143 -20 -232 -137.5t-89 -274.5z" />
<glyph unicode="&#xa3;" d="M152 645v92h141v181q0 164 59 258q94 151 316 151q114 0 212 -63q44 -29 87 -72l-60 -66q-94 113 -243 113q-222 0 -260 -209q-11 -63 -11 -137v-156h430v-92h-430v-553h639v-92h-739v645h-141z" />
<glyph unicode="&#xa4;" d="M92 315l141 138q-83 107 -83 245.5t81 251.5l-139 137l70 72l139 -137q113 92 256.5 92t259.5 -90l139 135l70 -72l-139 -135q86 -111 86 -250q0 -140 -86 -251l139 -136l-70 -73l-139 137q-114 -88 -260 -88t-254 90l-141 -139zM242 702q0 -131 94 -225t225 -94t225 94 q95 95 95 225q0 131 -95 226q-94 94 -225 94t-225 -94t-94 -226z" />
<glyph unicode="&#xa5;" d="M72 1292h114l375 -633l377 633h111l-381 -633h297v-81h-349l-8 -15v-192h357v-82h-357v-289h-90v289h-375v82h375v192l-10 15h-365v81h312z" />
<glyph unicode="&#xa6;" horiz-adv-x="440" d="M176 -336v776h88v-776h-88zM176 930v776h88v-776h-88z" />
<glyph unicode="&#xa7;" horiz-adv-x="985" d="M160 1028q0 154 114 264q112 109 263 109q91 0 154 -25q81 -31 124 -67l-53 -80q-113 82 -227 82q-126 0 -205 -92q-70 -82 -70 -187q0 -180 215 -305l373 -240l-53 -81l-351 221q-131 83 -182 141q-102 117 -102 260zM184 477l54 82l350 -221q129 -81 181 -141 q103 -118 103 -260q0 -156 -105 -265q-105 -108 -271 -108q-113 0 -188 34.5t-111 63.5l51 74q66 -43 120 -62.5t129 -19.5t127 25.5t84 66.5q64 80 64 186q0 155 -147 260q-37 27 -68 46z" />
<glyph unicode="&#xa8;" horiz-adv-x="716" d="M145 1157v129h123v-129h-123zM449 1157v129h122v-129h-122z" />
<glyph unicode="&#xa9;" horiz-adv-x="1654" d="M115 684q0 150 55 280t151.5 227t226.5 152.5t280.5 55.5t280.5 -55.5t225.5 -152.5t150.5 -227t55 -280t-55 -280t-150.5 -227t-225.5 -152.5t-281 -55.5t-280.5 55.5t-226 152.5t-151.5 227t-55 280zM217 682q0 -265 172 -443q178 -184 438 -184q263 0 438 184 q171 179 171 443t-171 443q-175 184 -438 184q-260 0 -438 -184q-172 -178 -172 -443zM451 676q0 164 110 278q108 111 273 111q100 0 182 -45t133 -123l-72 -49q-41 57 -106.5 94t-131.5 37t-118.5 -23.5t-90.5 -64.5q-83 -90 -83 -215q0 -123 78 -212t209 -89q80 0 144 40 t105 97l66 -55q-51 -78 -134 -124t-174 -46t-162 29.5t-122 81.5q-106 110 -106 278z" />
<glyph unicode="&#xaa;" horiz-adv-x="786" d="M121 892q0 93 70.5 152.5t218.5 59.5q75 0 159 -12v18q0 82 -51 110.5t-147 28.5t-174 -65l-50 59q29 27 90.5 55.5t147.5 28.5q270 0 270 -207v-254q0 -85 4 -131h-79q-2 20 -3.5 32.5t-1.5 37.5q-49 -47 -116.5 -66.5t-113.5 -19.5t-85 8t-70 27q-69 45 -69 138z M213 895q0 -102 139 -102q85 0 148 43q73 50 73 116v70q-72 10 -149 10t-116.5 -14t-59.5 -34q-35 -35 -35 -89z" />
<glyph unicode="&#xab;" horiz-adv-x="921" d="M157 479l217 393h101l-215 -393l215 -393h-101zM460 479l217 393h101l-215 -393l215 -393h-101z" />
<glyph unicode="&#xac;" d="M147 616v93h822v-336h-92v243h-730z" />
<glyph unicode="&#xad;" horiz-adv-x="894" d="M178 530v93h563v-93h-563z" />
<glyph unicode="&#xae;" horiz-adv-x="1654" d="M115 684q0 150 55 280t151.5 227t226.5 152.5t280.5 55.5t280.5 -55.5t225.5 -152.5t150.5 -227t55 -280t-55 -280t-150.5 -227t-225.5 -152.5t-281 -55.5t-280.5 55.5t-226 152.5t-151.5 227t-55 280zM217 682q0 -265 172 -443q178 -184 438 -184q263 0 438 184 q171 179 171 443t-171 443q-175 184 -438 184q-260 0 -438 -184q-172 -178 -172 -443zM606 307v748h250q125 0 184.5 -62.5t59.5 -150.5q0 -166 -160 -224l184 -311h-100l-178 301h-152v-301h-88zM694 684h160q76 0 116 42t40 114q0 139 -176 139h-140v-295z" />
<glyph unicode="&#xaf;" horiz-adv-x="722" d="M123 1182v86h477v-86h-477z" />
<glyph unicode="&#xb0;" horiz-adv-x="661" d="M63 1064q0 56 20.5 104.5t56.5 83.5q79 75 190 75q115 0 191 -75q77 -75 77 -187q0 -114 -77 -189q-76 -75 -189 -75q-116 0 -192 75q-77 75 -77 188zM152 1063q0 -73 52 -127q52 -53 128 -53q74 0 124 54q54 57 54 128t-53.5 124.5t-126.5 53.5q-72 0 -126 -53 q-52 -53 -52 -127z" />
<glyph unicode="&#xb1;" d="M147 0v92h822v-92h-822zM147 610v92h365v355h92v-355h365v-92h-361v-356h-94v356h-367z" />
<glyph unicode="&#xb2;" horiz-adv-x="737" d="M88 1200q35 45 103.5 86t146 41t125 -17.5t77.5 -45.5q60 -56 60 -142q0 -124 -152 -223q-42 -27 -94 -56.5t-102.5 -64.5t-50.5 -86h405v-82h-506v78q0 106 207 223q101 63 132 90q65 58 65 120.5t-48 93t-110.5 30.5t-114 -29.5t-81.5 -70.5z" />
<glyph unicode="&#xb3;" horiz-adv-x="737" d="M86 653l45 68q71 -55 166.5 -55t151 39.5t55.5 109.5q0 73 -52 113q-41 33 -99 33t-93 -11l-24 47l219 240h-318v70h430v-58l-217 -227q16 4 37 4q96 0 151.5 -61.5t55.5 -153.5t-77 -156.5t-208 -64.5q-120 0 -223 63z" />
<glyph unicode="&#xb4;" horiz-adv-x="499" d="M129 1104l127 262h113l-154 -262h-86z" />
<glyph unicode="&#xb5;" horiz-adv-x="1081" d="M131 -410v1352h94v-522q0 -159 35 -236q39 -72 98.5 -97.5t144.5 -25.5t150.5 37t107.5 94q83 114 83 265v485h92v-860q0 -36 4 -82h-86q-6 69 -6 112v85q-75 -145 -220 -199q-61 -23 -147 -23q-169 0 -256 105v-490h-94z" />
<glyph unicode="&#xb6;" horiz-adv-x="1030" d="M115 1006q0 186 147 281q124 79 316 79v-719q-310 0 -422 187q-41 69 -41 172zM481 -250v785q51 -7 97 -7v-778h-97zM758 -250v1616h96v-1616h-96z" />
<glyph unicode="&#xb7;" horiz-adv-x="425" d="M146 590v143h139v-143h-139z" />
<glyph unicode="&#xb8;" horiz-adv-x="694" d="M139 -408l17 70q85 -35 155 -35q154 0 154 99q0 88 -129 88q-69 0 -160 -31l12 72q25 8 61 19t98 11t99 -14t60 -35q45 -44 45 -118t-66.5 -118t-155 -44t-128 13t-62.5 23z" />
<glyph unicode="&#xb9;" horiz-adv-x="737" d="M137 1182l258 125h78v-697h-90v607l-213 -103z" />
<glyph unicode="&#xba;" horiz-adv-x="792" d="M84 1022q0 129 86 215q90 90 227 90q136 0 226 -90q86 -86 86 -215q0 -128 -86 -216q-87 -89 -226 -89q-140 0 -227 89q-86 88 -86 216zM170 1022q0 -89 54 -154q63 -73 172 -73q58 0 101.5 20.5t70.5 52.5q55 65 55 154q0 145 -125 204q-43 21 -101.5 21t-101.5 -20.5 t-71 -52.5q-54 -62 -54 -152z" />
<glyph unicode="&#xbb;" horiz-adv-x="921" d="M168 86l215 393l-215 393h100l217 -393l-217 -393h-100zM471 86l215 393l-215 393h100l217 -393l-217 -393h-100z" />
<glyph unicode="&#xbc;" horiz-adv-x="1720" d="M80 1182l258 125h78v-697h-90v607l-213 -103zM367 0l831 1290h105l-832 -1290h-104zM1034 158v72l387 469h92v-467h88v-74h-88v-154h-82v154h-397zM1130 232h301v366z" />
<glyph unicode="&#xbd;" horiz-adv-x="1720" d="M100 1182l258 125h78v-697h-90v607l-213 -103zM307 0l831 1290h105l-832 -1290h-104zM1063 592q35 45 103.5 86t146 41t125 -17.5t77.5 -45.5q60 -56 60 -142q0 -124 -152 -223q-42 -27 -94 -56.5t-102.5 -64.5t-50.5 -86h405v-82h-506v78q0 106 207 223q101 63 132 90 q65 58 65 120.5t-48 93t-110.5 30.5t-114 -29.5t-81.5 -70.5z" />
<glyph unicode="&#xbe;" horiz-adv-x="1720" d="M92 653l45 68q71 -55 166.5 -55t151 39.5t55.5 109.5q0 73 -52 113q-41 33 -99 33t-93 -11l-24 47l219 240h-318v70h430v-58l-217 -227q16 4 37 4q96 0 151.5 -61.5t55.5 -153.5t-77 -156.5t-208 -64.5q-120 0 -223 63zM412 0l831 1290h105l-832 -1290h-104zM1059 158v72 l387 469h92v-467h88v-74h-88v-154h-82v154h-397zM1155 232h301v366z" />
<glyph unicode="&#xbf;" horiz-adv-x="1015" d="M141 -133q0 162 150 281q47 38 93 72t79 62.5t57 64.5q53 77 53 188v67h91v-78q0 -190 -151 -312q-42 -34 -82 -63t-72.5 -56t-59.5 -61q-57 -72 -57 -176t89 -162.5t215 -58.5t208 41t151 125l66 -63q-63 -78 -168 -136.5t-225.5 -58.5t-198.5 24.5t-130 67.5 q-108 89 -108 232zM553 809v133h129v-133h-129z" />
<glyph unicode="&#xc0;" horiz-adv-x="1298" d="M41 0l559 1366h98l559 -1366h-112l-178 440h-643l-177 -440h-106zM360 532h570l-285 709zM455 1774h125l154 -289h-91z" />
<glyph unicode="&#xc1;" horiz-adv-x="1298" d="M41 0l559 1366h98l559 -1366h-112l-178 440h-643l-177 -440h-106zM360 532h570l-285 709zM571 1485l151 289h132l-193 -289h-90z" />
<glyph unicode="&#xc2;" horiz-adv-x="1298" d="M41 0l559 1366h98l559 -1366h-112l-178 440h-643l-177 -440h-106zM350 1485l240 289h108l232 -289h-107l-182 221l-182 -221h-109zM360 532h570l-285 709z" />
<glyph unicode="&#xc3;" horiz-adv-x="1298" d="M41 0l559 1366h98l559 -1366h-112l-178 440h-643l-177 -440h-106zM305 1616q95 104 209 104q67 0 148 -48q30 -17 58.5 -32.5t66.5 -15.5q68 0 148 76l58 -62q-93 -102 -209 -102q-49 0 -83 15.5t-63.5 33t-58.5 32.5t-65 15q-78 0 -158 -76zM360 532h570l-285 709z" />
<glyph unicode="&#xc4;" horiz-adv-x="1298" d="M41 0l559 1366h98l559 -1366h-112l-178 440h-643l-177 -440h-106zM360 532h570l-285 709zM412 1556v142h135v-142h-135zM752 1556v142h135v-142h-135z" />
<glyph unicode="&#xc5;" horiz-adv-x="1298" d="M41 0l532 1303q-61 23 -100 76t-39 136.5t61.5 143t152.5 59.5t153.5 -59.5t62.5 -143.5t-40 -137t-101 -75l534 -1303h-112l-178 440h-643l-177 -440h-106zM360 532h570l-285 709zM514 1506.5q0 -58.5 37 -99.5t95 -41t98 40t40 100t-39.5 98t-96 38t-95.5 -38.5 t-39 -97z" />
<glyph unicode="&#xc6;" horiz-adv-x="1945" d="M20 0l912 1366h868v-92h-721v-516h563v-92h-563v-574h774v-92h-872v399h-584l-264 -399h-113zM459 492h522v788z" />
<glyph unicode="&#xc7;" horiz-adv-x="1376" d="M115 684q0 305 181 507q187 208 478 208q206 0 358 -110q89 -65 140 -150l-74 -52q-12 16 -40 52.5t-78 72.5q-129 95 -281 95t-255.5 -48.5t-175.5 -132.5q-147 -173 -147 -442q0 -265 149 -443q154 -182 414 -182q163 0 292 95q69 50 122 125l74 -52 q-92 -153 -289 -227q-88 -33 -222 -33t-256 54.5t-209 150.5q-181 200 -181 512zM553 -408l16 80q82 -34 162 -34q160 0 160 92q0 80 -133 80q-77 0 -168 -31l14 82q92 30 163.5 30t109.5 -14t63 -37q47 -46 47 -119t-70.5 -119t-158.5 -46q-119 0 -205 36z" />
<glyph unicode="&#xc8;" horiz-adv-x="1140" d="M176 0v1366h819v-92h-721v-516h564v-92h-564v-574h775v-92h-873zM422 1774h125l154 -289h-91z" />
<glyph unicode="&#xc9;" horiz-adv-x="1140" d="M176 0v1366h819v-92h-721v-516h564v-92h-564v-574h775v-92h-873zM514 1485l151 289h132l-193 -289h-90z" />
<glyph unicode="&#xca;" horiz-adv-x="1140" d="M176 0v1366h819v-92h-721v-516h564v-92h-564v-574h775v-92h-873zM301 1485l240 289h108l232 -289h-107l-182 221l-182 -221h-109z" />
<glyph unicode="&#xcb;" horiz-adv-x="1140" d="M176 0v1366h819v-92h-721v-516h564v-92h-564v-574h775v-92h-873zM348 1556v142h135v-142h-135zM688 1556v142h135v-142h-135z" />
<glyph unicode="&#xcc;" horiz-adv-x="450" d="M14 1774h125l154 -289h-91zM176 0v1366h98v-1366h-98z" />
<glyph unicode="&#xcd;" horiz-adv-x="450" d="M166 1485l151 289h132l-193 -289h-90zM176 0v1366h98v-1366h-98z" />
<glyph unicode="&#xce;" horiz-adv-x="450" d="M-59 1485l240 289h108l232 -289h-107l-182 221l-182 -221h-109zM176 0v1366h98v-1366h-98z" />
<glyph unicode="&#xcf;" horiz-adv-x="450" d="M-10 1556v142h135v-142h-135zM176 0v1366h98v-1366h-98zM330 1556v142h135v-142h-135z" />
<glyph unicode="&#xd0;" horiz-adv-x="1456" d="M41 662v86h164v618h373q350 0 550 -163q213 -175 213 -519q0 -343 -213 -520q-199 -164 -550 -164h-373v662h-164zM303 92h295q299 0 465 146q174 152 174 446q0 291 -177 444q-168 146 -478 146h-279v-526h391v-86h-391v-570z" />
<glyph unicode="&#xd1;" horiz-adv-x="1427" d="M176 0v1366h103l876 -1219v1219h96v-1366h-102l-877 1202v-1202h-96zM373 1616q95 104 209 104q67 0 148 -48q30 -17 58.5 -32.5t66.5 -15.5q68 0 148 76l58 -62q-93 -102 -209 -102q-49 0 -83 15.5t-63.5 33t-58.5 32.5t-65 15q-78 0 -158 -76z" />
<glyph unicode="&#xd2;" horiz-adv-x="1585" d="M115 682q0 150 51 281t141 228q193 208 486 208q147 0 271 -55.5t214 -152.5t141 -228.5t51 -282t-51 -280.5t-141 -226t-214 -151.5t-271 -55.5t-271.5 55.5t-214.5 151.5q-192 205 -192 508zM219 682q0 -263 157 -441q161 -182 417 -182q257 0 417 182q156 179 156 441 q0 266 -156 442q-75 84 -181.5 133.5t-235.5 49.5q-254 0 -417 -183q-157 -176 -157 -442zM612 1774h125l154 -289h-91z" />
<glyph unicode="&#xd3;" horiz-adv-x="1585" d="M115 682q0 150 51 281t141 228q193 208 486 208q147 0 271 -55.5t214 -152.5t141 -228.5t51 -282t-51 -280.5t-141 -226t-214 -151.5t-271 -55.5t-271.5 55.5t-214.5 151.5q-192 205 -192 508zM219 682q0 -263 157 -441q161 -182 417 -182q257 0 417 182q156 179 156 441 q0 266 -156 442q-75 84 -181.5 133.5t-235.5 49.5q-254 0 -417 -183q-157 -176 -157 -442zM735 1485l151 289h132l-193 -289h-90z" />
<glyph unicode="&#xd4;" horiz-adv-x="1585" d="M115 682q0 150 51 281t141 228q193 208 486 208q147 0 271 -55.5t214 -152.5t141 -228.5t51 -282t-51 -280.5t-141 -226t-214 -151.5t-271 -55.5t-271.5 55.5t-214.5 151.5q-192 205 -192 508zM219 682q0 -263 157 -441q161 -182 417 -182q257 0 417 182q156 179 156 441 q0 266 -156 442q-75 84 -181.5 133.5t-235.5 49.5q-254 0 -417 -183q-157 -176 -157 -442zM494 1485l240 289h108l232 -289h-107l-182 221l-182 -221h-109z" />
<glyph unicode="&#xd5;" horiz-adv-x="1585" d="M115 682q0 150 51 281t141 228q193 208 486 208q147 0 271 -55.5t214 -152.5t141 -228.5t51 -282t-51 -280.5t-141 -226t-214 -151.5t-271 -55.5t-271.5 55.5t-214.5 151.5q-192 205 -192 508zM219 682q0 -263 157 -441q161 -182 417 -182q257 0 417 182q156 179 156 441 q0 266 -156 442q-75 84 -181.5 133.5t-235.5 49.5q-254 0 -417 -183q-157 -176 -157 -442zM453 1616q95 104 209 104q67 0 148 -48q30 -17 58.5 -32.5t66.5 -15.5q68 0 148 76l58 -62q-93 -102 -209 -102q-49 0 -83 15.5t-63.5 33t-58.5 32.5t-65 15q-78 0 -158 -76z" />
<glyph unicode="&#xd6;" horiz-adv-x="1585" d="M115 682q0 150 51 281t141 228q193 208 486 208q147 0 271 -55.5t214 -152.5t141 -228.5t51 -282t-51 -280.5t-141 -226t-214 -151.5t-271 -55.5t-271.5 55.5t-214.5 151.5q-192 205 -192 508zM219 682q0 -263 157 -441q161 -182 417 -182q257 0 417 182q156 179 156 441 q0 266 -156 442q-75 84 -181.5 133.5t-235.5 49.5q-254 0 -417 -183q-157 -176 -157 -442zM553 1556v142h135v-142h-135zM893 1556v142h135v-142h-135z" />
<glyph unicode="&#xd7;" d="M217 381l277 274l-277 277l66 65l276 -276l275 276l65 -65l-276 -275l276 -276l-65 -66l-275 277l-276 -277z" />
<glyph unicode="&#xd8;" horiz-adv-x="1585" d="M117 674q0 158 51 289t141 228q193 208 486 208q193 0 360 -105l121 172l74 -47l-125 -176q117 -98 182.5 -242.5t65.5 -307.5t-51.5 -293t-141.5 -226t-214 -151.5t-271 -55.5q-213 0 -383 117l-131 -184l-74 47l135 192q-106 98 -165.5 237.5t-59.5 297.5zM221 682 q0 -287 176 -463l705 1000q-142 88 -289 88t-253.5 -49.5t-181.5 -133.5q-157 -176 -157 -442zM465 162q143 -103 330 -103q257 0 417 182q156 179 156 441q0 147 -52 272t-147 211z" />
<glyph unicode="&#xd9;" horiz-adv-x="1376" d="M166 545v821h98v-770q0 -258 85 -385q101 -152 339 -152q345 0 406 322q18 98 18 215v770h98v-821q0 -578 -522 -578t-522 578zM522 1774h125l154 -289h-91z" />
<glyph unicode="&#xda;" horiz-adv-x="1376" d="M166 545v821h98v-770q0 -258 85 -385q101 -152 339 -152q345 0 406 322q18 98 18 215v770h98v-821q0 -578 -522 -578t-522 578zM588 1485l151 289h132l-193 -289h-90z" />
<glyph unicode="&#xdb;" horiz-adv-x="1376" d="M166 545v821h98v-770q0 -258 85 -385q101 -152 339 -152q345 0 406 322q18 98 18 215v770h98v-821q0 -578 -522 -578t-522 578zM397 1485l240 289h108l232 -289h-107l-182 221l-182 -221h-109z" />
<glyph unicode="&#xdc;" horiz-adv-x="1376" d="M166 545v821h98v-770q0 -258 85 -385q101 -152 339 -152q345 0 406 322q18 98 18 215v770h98v-821q0 -578 -522 -578t-522 578zM451 1556v142h135v-142h-135zM791 1556v142h135v-142h-135z" />
<glyph unicode="&#xdd;" horiz-adv-x="1105" d="M33 1366h119l403 -643l403 643h115l-471 -739v-627h-98v627zM492 1485l151 289h132l-193 -289h-90z" />
<glyph unicode="&#xde;" horiz-adv-x="1183" d="M176 0v1366h98v-270h322q370 0 450 -238q25 -72 25 -156q0 -280 -251 -363q-91 -30 -224 -30h-322v-309h-98zM274 401h351q340 0 340 301q0 302 -340 302h-351v-603z" />
<glyph unicode="&#xdf;" horiz-adv-x="1140" d="M141 0v979q0 223 111 330q94 90 270 90q141 0 229 -75q83 -71 83 -169t-41 -155.5t-90.5 -103.5t-90.5 -91t-41 -105.5t35 -91t88.5 -51t113.5 -39t114 -50.5q122 -73 122 -228q0 -117 -81.5 -197t-241.5 -80q-173 0 -307 92l51 76q107 -84 236 -84t185 51.5t56 132.5 t-34 121.5t-86 65t-111.5 41t-111.5 41.5q-120 56 -120 188q0 124 130 236q78 68 104 115.5t26 105.5t-50 113t-152.5 55t-157.5 -25.5t-87 -71.5q-59 -86 -59 -249v-967h-92z" />
<glyph unicode="&#xe0;" horiz-adv-x="1007" d="M98 248q0 76 22.5 136t71.5 104q108 96 316 96q145 0 268 -21v53q0 216 -164 254q-53 13 -146 13q-149 0 -267 -99l-49 64q39 37 125.5 78t211.5 41q182 0 281.5 -78t99.5 -258v-517q0 -42 6 -114h-88q-2 18 -3 39.5t-1 50.5v68q-128 -183 -352 -183t-302 143 q-30 54 -30 130zM197 256q0 -102 68.5 -149.5t156.5 -47.5t149.5 25t107.5 66q99 87 99 198v133q-107 25 -241.5 25t-196 -25.5t-93.5 -63.5q-50 -59 -50 -161zM352 1372h119l123 -262h-86z" />
<glyph unicode="&#xe1;" horiz-adv-x="1007" d="M98 248q0 76 22.5 136t71.5 104q108 96 316 96q145 0 268 -21v53q0 216 -164 254q-53 13 -146 13q-149 0 -267 -99l-49 64q39 37 125.5 78t211.5 41q182 0 281.5 -78t99.5 -258v-517q0 -42 6 -114h-88q-2 18 -3 39.5t-1 50.5v68q-128 -183 -352 -183t-302 143 q-30 54 -30 130zM197 256q0 -102 68.5 -149.5t156.5 -47.5t149.5 25t107.5 66q99 87 99 198v133q-107 25 -241.5 25t-196 -25.5t-93.5 -63.5q-50 -59 -50 -161zM430 1104l127 262h113l-154 -262h-86z" />
<glyph unicode="&#xe2;" horiz-adv-x="1007" d="M98 248q0 76 22.5 136t71.5 104q108 96 316 96q145 0 268 -21v53q0 216 -164 254q-53 13 -146 13q-149 0 -267 -99l-49 64q39 37 125.5 78t211.5 41q182 0 281.5 -78t99.5 -258v-517q0 -42 6 -114h-88q-2 18 -3 39.5t-1 50.5v68q-128 -183 -352 -183t-302 143 q-30 54 -30 130zM197 256q0 -102 68.5 -149.5t156.5 -47.5t149.5 25t107.5 66q99 87 99 198v133q-107 25 -241.5 25t-196 -25.5t-93.5 -63.5q-50 -59 -50 -161zM266 1104l188 262h90l189 -262h-98l-136 192l-135 -192h-98z" />
<glyph unicode="&#xe3;" horiz-adv-x="1007" d="M98 248q0 76 22.5 136t71.5 104q108 96 316 96q145 0 268 -21v53q0 216 -164 254q-53 13 -146 13q-149 0 -267 -99l-49 64q39 37 125.5 78t211.5 41q182 0 281.5 -78t99.5 -258v-517q0 -42 6 -114h-88q-2 18 -3 39.5t-1 50.5v68q-128 -183 -352 -183t-302 143 q-30 54 -30 130zM191 1212q88 101 198 101q66 0 143 -49q27 -17 54 -32t62 -15q66 0 143 77l47 -61q-85 -98 -199 -98q-64 0 -140 47q-28 18 -55.5 33.5t-62.5 15.5q-73 0 -143 -70zM197 256q0 -102 68.5 -149.5t156.5 -47.5t149.5 25t107.5 66q99 87 99 198v133 q-107 25 -241.5 25t-196 -25.5t-93.5 -63.5q-50 -59 -50 -161z" />
<glyph unicode="&#xe4;" horiz-adv-x="1007" d="M98 248q0 76 22.5 136t71.5 104q108 96 316 96q145 0 268 -21v53q0 216 -164 254q-53 13 -146 13q-149 0 -267 -99l-49 64q39 37 125.5 78t211.5 41q182 0 281.5 -78t99.5 -258v-517q0 -42 6 -114h-88q-2 18 -3 39.5t-1 50.5v68q-128 -183 -352 -183t-302 143 q-30 54 -30 130zM197 256q0 -102 68.5 -149.5t156.5 -47.5t149.5 25t107.5 66q99 87 99 198v133q-107 25 -241.5 25t-196 -25.5t-93.5 -63.5q-50 -59 -50 -161zM297 1157v129h123v-129h-123zM601 1157v129h122v-129h-122z" />
<glyph unicode="&#xe5;" horiz-adv-x="1007" d="M98 248q0 76 22.5 136t71.5 104q108 96 316 96q145 0 268 -21v53q0 216 -164 254q-53 13 -146 13q-149 0 -267 -99l-49 64q39 37 125.5 78t211.5 41q182 0 281.5 -78t99.5 -258v-517q0 -42 6 -114h-88q-2 18 -3 39.5t-1 50.5v68q-128 -183 -352 -183t-302 143 q-30 54 -30 130zM197 256q0 -102 68.5 -149.5t156.5 -47.5t149.5 25t107.5 66q99 87 99 198v133q-107 25 -241.5 25t-196 -25.5t-93.5 -63.5q-50 -59 -50 -161zM303 1304q0 87 57 142t142 55t142.5 -55t57.5 -142t-57.5 -143.5t-142.5 -56.5t-142 56.5t-57 143.5zM376 1304 q0 -56 37 -93t89 -37t89 36.5t37 93t-36.5 92.5t-90.5 36q-53 0 -89 -36t-36 -92z" />
<glyph unicode="&#xe6;" horiz-adv-x="1767" d="M98 252q0 214 224 280q77 23 170.5 23t159 -6t124.5 -10v77q0 216 -164 254q-53 13 -146 13q-149 0 -267 -99l-49 64q39 37 125.5 78t211.5 41q297 0 363 -205q59 92 154.5 148.5t205 56.5t192.5 -33t144 -98q127 -135 127 -383h-803q4 -160 109 -276t270 -116 q139 0 257 81q36 24 61 55l65 -56q-61 -78 -166.5 -122t-231.5 -44t-233.5 61.5t-166.5 172.5q-123 -186 -296 -223q-55 -11 -111 -11t-114.5 12.5t-105.5 42.5q-109 71 -109 222zM197 246.5q0 -96.5 68.5 -142t155.5 -45.5t149.5 25t108.5 66q99 87 99 198v109 q-136 20 -254 20t-178.5 -22.5t-93.5 -56.5q-55 -55 -55 -151.5zM872 532h701q-18 174 -110.5 261.5t-239.5 87.5q-149 0 -246 -101q-95 -99 -105 -248z" />
<glyph unicode="&#xe7;" horiz-adv-x="1013" d="M94 471q0 212 136 353q136 143 337 143q229 0 361 -166l-70 -53q-102 133 -291 133q-159 0 -269 -121q-105 -116 -105 -289q0 -170 107 -289q109 -121 267 -121q102 0 181 37t126 99l66 -58q-59 -72 -154.5 -118t-208 -46t-199.5 38t-150 105q-134 139 -134 353z M360 -408l17 70q85 -35 155 -35q154 0 154 99q0 88 -129 88q-69 0 -160 -31l12 72q25 8 61 19t98 11t99 -14t60 -35q45 -44 45 -118t-66.5 -118t-155 -44t-128 13t-62.5 23z" />
<glyph unicode="&#xe8;" horiz-adv-x="1093" d="M94 471q0 206 128 351t327 145t323 -133q127 -139 127 -388h-802q4 -163 108 -273q106 -112 270 -112q141 0 257 81q36 24 61 55l65 -56q-61 -78 -166.5 -122t-213 -44t-196.5 36t-152 101q-136 140 -136 359zM199 526h700q-18 174 -110.5 264.5t-239.5 90.5 q-148 0 -246 -104q-96 -102 -104 -251zM400 1372h119l123 -262h-86z" />
<glyph unicode="&#xe9;" horiz-adv-x="1093" d="M94 471q0 206 128 351t327 145t323 -133q127 -139 127 -388h-802q4 -163 108 -273q106 -112 270 -112q141 0 257 81q36 24 61 55l65 -56q-61 -78 -166.5 -122t-213 -44t-196.5 36t-152 101q-136 140 -136 359zM199 526h700q-18 174 -110.5 264.5t-239.5 90.5 q-148 0 -246 -104q-96 -102 -104 -251zM491 1104l127 262h113l-154 -262h-86z" />
<glyph unicode="&#xea;" horiz-adv-x="1093" d="M94 471q0 206 128 351t327 145t323 -133q127 -139 127 -388h-802q4 -163 108 -273q106 -112 270 -112q141 0 257 81q36 24 61 55l65 -56q-61 -78 -166.5 -122t-213 -44t-196.5 36t-152 101q-136 140 -136 359zM199 526h700q-18 174 -110.5 264.5t-239.5 90.5 q-148 0 -246 -104q-96 -102 -104 -251zM315 1104l188 262h90l189 -262h-98l-136 192l-135 -192h-98z" />
<glyph unicode="&#xeb;" horiz-adv-x="1093" d="M94 471q0 206 128 351t327 145t323 -133q127 -139 127 -388h-802q4 -163 108 -273q106 -112 270 -112q141 0 257 81q36 24 61 55l65 -56q-61 -78 -166.5 -122t-213 -44t-196.5 36t-152 101q-136 140 -136 359zM199 526h700q-18 174 -110.5 264.5t-239.5 90.5 q-148 0 -246 -104q-96 -102 -104 -251zM331 1157v129h123v-129h-123zM635 1157v129h122v-129h-122z" />
<glyph unicode="&#xec;" horiz-adv-x="382" d="M8 1372h119l123 -262h-86zM145 0v942h93v-942h-93z" />
<glyph unicode="&#xed;" horiz-adv-x="382" d="M133 1104l127 262h113l-154 -262h-86zM145 0v942h93v-942h-93z" />
<glyph unicode="&#xee;" horiz-adv-x="382" d="M-41 1104l188 262h90l189 -262h-98l-136 192l-135 -192h-98zM145 0v942h93v-942h-93z" />
<glyph unicode="&#xef;" horiz-adv-x="382" d="M-21 1157v129h123v-129h-123zM145 0v942h93v-942h-93zM283 1157v129h122v-129h-122z" />
<glyph unicode="&#xf0;" horiz-adv-x="1153" d="M94 444q0 195 134 330q140 139 354 139q123 0 204.5 -32.5t139.5 -69.5q-79 279 -328 414l-127 -160l-61 47l116 148q-111 41 -219 47l10 84q136 -8 267 -62l116 148l62 -47l-107 -134q294 -162 377 -510q27 -110 27 -246.5t-40 -246t-107 -181.5q-133 -143 -349 -143 q-198 0 -329 123q-140 131 -140 352zM195 440q0 -171 107 -276t259 -105q163 0 273 115q57 59 92 152.5t35 184.5t-11 187q-162 127 -368 127q-168 0 -276 -106q-111 -109 -111 -279z" />
<glyph unicode="&#xf1;" horiz-adv-x="1093" d="M141 942h86q6 -69 6 -114v-83q74 144 225 199q62 23 152 23t159 -29t112 -83q80 -100 80 -302v-553h-93v522q0 292 -160 342q-53 17 -131.5 17t-144 -37t-108.5 -94q-86 -116 -86 -265v-485h-93v860q0 38 -4 82zM223 1212q88 101 198 101q66 0 143 -49q27 -17 54 -32 t62 -15q66 0 143 77l47 -61q-85 -98 -199 -98q-64 0 -140 47q-28 18 -55.5 33.5t-62.5 15.5q-73 0 -143 -70z" />
<glyph unicode="&#xf2;" horiz-adv-x="1159" d="M94 471q0 206 142 351q144 145 344 145q199 0 342 -145t143 -351t-143 -351t-342 -145q-200 0 -344 145q-142 145 -142 351zM190 471q0 -162 114 -289q112 -123 277 -123q81 0 152.5 33t123.5 88q112 120 112 291q0 162 -114 289q-112 123 -275 123q-164 0 -278 -121 q-112 -118 -112 -291zM418 1372h119l123 -262h-86z" />
<glyph unicode="&#xf3;" horiz-adv-x="1159" d="M94 471q0 206 142 351q144 145 344 145q199 0 342 -145t143 -351t-143 -351t-342 -145q-200 0 -344 145q-142 145 -142 351zM190 471q0 -162 114 -289q112 -123 277 -123q81 0 152.5 33t123.5 88q112 120 112 291q0 162 -114 289q-112 123 -275 123q-164 0 -278 -121 q-112 -118 -112 -291zM524 1104l127 262h113l-154 -262h-86z" />
<glyph unicode="&#xf4;" horiz-adv-x="1159" d="M94 471q0 206 142 351q144 145 344 145q199 0 342 -145t143 -351t-143 -351t-342 -145q-200 0 -344 145q-142 145 -142 351zM190 471q0 -162 114 -289q112 -123 277 -123q81 0 152.5 33t123.5 88q112 120 112 291q0 162 -114 289q-112 123 -275 123q-164 0 -278 -121 q-112 -118 -112 -291zM342 1104l188 262h90l189 -262h-98l-136 192l-135 -192h-98z" />
<glyph unicode="&#xf5;" horiz-adv-x="1159" d="M94 471q0 206 142 351q144 145 344 145q199 0 342 -145t143 -351t-143 -351t-342 -145q-200 0 -344 145q-142 145 -142 351zM190 471q0 -162 114 -289q112 -123 277 -123q81 0 152.5 33t123.5 88q112 120 112 291q0 162 -114 289q-112 123 -275 123q-164 0 -278 -121 q-112 -118 -112 -291zM258 1212q88 101 198 101q66 0 143 -49q27 -17 54 -32t62 -15q66 0 143 77l47 -61q-85 -98 -199 -98q-64 0 -140 47q-28 18 -55.5 33.5t-62.5 15.5q-73 0 -143 -70z" />
<glyph unicode="&#xf6;" horiz-adv-x="1159" d="M94 471q0 206 142 351q144 145 344 145q199 0 342 -145t143 -351t-143 -351t-342 -145q-200 0 -344 145q-142 145 -142 351zM190 471q0 -162 114 -289q112 -123 277 -123q81 0 152.5 33t123.5 88q112 120 112 291q0 162 -114 289q-112 123 -275 123q-164 0 -278 -121 q-112 -118 -112 -291zM364 1157v129h123v-129h-123zM668 1157v129h122v-129h-122z" />
<glyph unicode="&#xf7;" d="M147 608v92h822v-92h-822zM496 285v125h125v-125h-125zM496 899v125h125v-125h-125z" />
<glyph unicode="&#xf8;" horiz-adv-x="1159" d="M94 471q0 206 142 351q144 145 344 145q136 0 249 -72l103 147l67 -43l-106 -149q172 -150 172 -379q0 -206 -143 -351t-342 -145q-139 0 -250 70l-101 -141l-67 43l102 145q-170 153 -170 379zM190 471q0 -180 127 -303l461 655q-93 60 -187.5 60t-165.5 -33t-123 -88 q-112 -118 -112 -291zM381 119q89 -60 185 -60t167.5 33t123.5 88q112 120 112 291q0 178 -129 303z" />
<glyph unicode="&#xf9;" horiz-adv-x="1081" d="M133 389v553h92v-522q0 -292 156 -342q51 -17 129 -17t143.5 37t107.5 94q83 114 83 265v485h92v-860q0 -36 4 -82h-86q-6 69 -6 112v85q-75 -145 -220 -199q-61 -23 -151 -23t-157.5 29t-109.5 83q-77 99 -77 302zM373 1372h119l123 -262h-86z" />
<glyph unicode="&#xfa;" horiz-adv-x="1081" d="M133 389v553h92v-522q0 -292 156 -342q51 -17 129 -17t143.5 37t107.5 94q83 114 83 265v485h92v-860q0 -36 4 -82h-86q-6 69 -6 112v85q-75 -145 -220 -199q-61 -23 -151 -23t-157.5 29t-109.5 83q-77 99 -77 302zM473 1104l127 262h113l-154 -262h-86z" />
<glyph unicode="&#xfb;" horiz-adv-x="1081" d="M133 389v553h92v-522q0 -292 156 -342q51 -17 129 -17t143.5 37t107.5 94q83 114 83 265v485h92v-860q0 -36 4 -82h-86q-6 69 -6 112v85q-75 -145 -220 -199q-61 -23 -151 -23t-157.5 29t-109.5 83q-77 99 -77 302zM303 1104l188 262h90l189 -262h-98l-136 192l-135 -192 h-98z" />
<glyph unicode="&#xfc;" horiz-adv-x="1081" d="M133 389v553h92v-522q0 -292 156 -342q51 -17 129 -17t143.5 37t107.5 94q83 114 83 265v485h92v-860q0 -36 4 -82h-86q-6 69 -6 112v85q-75 -145 -220 -199q-61 -23 -151 -23t-157.5 29t-109.5 83q-77 99 -77 302zM317 1157v129h123v-129h-123zM621 1157v129h122v-129 h-122z" />
<glyph unicode="&#xfd;" horiz-adv-x="946" d="M33 942h104l363 -817l313 817h100l-462 -1165q-82 -211 -236 -211q-100 0 -170 63l47 66q47 -47 115.5 -47t102.5 43t65 123l78 198zM403 1104l127 262h113l-154 -262h-86z" />
<glyph unicode="&#xfe;" horiz-adv-x="1101" d="M143 1364h93v-596q40 72 90 111q111 88 239 88t207.5 -39t131.5 -106q104 -136 104 -357q0 -219 -136 -355q-135 -135 -342 -135q-100 0 -171.5 28t-122.5 56v-469h-91zM236 164l38 -28q106 -75 256 -75q164 0 269 105q110 110 110 299q0 286 -179 382q-64 34 -141 34 t-127 -18.5t-89 -50.5q-117 -96 -132 -249q-5 -51 -5 -104v-295z" />
<glyph unicode="&#xff;" horiz-adv-x="946" d="M33 942h104l363 -817l313 817h100l-462 -1165q-82 -211 -236 -211q-100 0 -170 63l47 66q47 -47 115.5 -47t102.5 43t65 123l78 198zM262 1157v129h123v-129h-123zM566 1157v129h122v-129h-122z" />
<glyph unicode="&#x152;" horiz-adv-x="2336" d="M115 682q0 150 51 281t141 228q193 208 486 208q197 0 353 -97q162 -99 226 -270v334h819v-92h-721v-516h564v-92h-564v-574h775v-92h-873v330q-65 -169 -228 -268q-158 -95 -328 -95t-294.5 55.5t-214.5 151.5q-192 205 -192 508zM219 682q0 -263 157 -441 q161 -182 417 -182q257 0 417 182q156 179 156 441q0 266 -156 442q-75 84 -181.5 133.5t-235.5 49.5q-254 0 -417 -183q-157 -176 -157 -442z" />
<glyph unicode="&#x153;" horiz-adv-x="1968" d="M94 471q0 206 142 351q144 145 344 145q216 0 359 -163q44 -50 75 -112q53 123 159.5 199t249.5 76q201 0 323 -133q128 -140 128 -388h-803q4 -163 109 -273q106 -112 270 -112q139 0 257 81q36 24 60 55l66 -56q-61 -78 -166.5 -122t-238 -44t-246 73t-168.5 200 q-59 -123 -175 -198t-237.5 -75t-210 39t-155.5 106q-142 145 -142 351zM190 471q0 -162 114 -289q112 -123 277 -123q81 0 152.5 33t123.5 88q112 120 112 291q0 162 -114 289q-112 123 -275 123q-164 0 -278 -121q-112 -118 -112 -291zM1073 526h701q-18 174 -110.5 264.5 t-240.5 90.5q-147 0 -245 -104q-97 -103 -105 -251z" />
<glyph unicode="&#x178;" horiz-adv-x="1105" d="M33 1366h119l403 -643l403 643h115l-471 -739v-627h-98v627zM324 1556v142h135v-142h-135zM664 1556v142h135v-142h-135z" />
<glyph unicode="&#x2c6;" horiz-adv-x="716" d="M125 1104l188 262h90l189 -262h-98l-136 192l-135 -192h-98z" />
<glyph unicode="&#x2dc;" horiz-adv-x="716" d="M35 1212q88 101 198 101q66 0 143 -49q27 -17 54 -32t62 -15q66 0 143 77l47 -61q-85 -98 -199 -98q-64 0 -140 47q-28 18 -55.5 33.5t-62.5 15.5q-73 0 -143 -70z" />
<glyph unicode="&#x2000;" horiz-adv-x="887" />
<glyph unicode="&#x2001;" horiz-adv-x="1774" />
<glyph unicode="&#x2002;" horiz-adv-x="887" />
<glyph unicode="&#x2003;" horiz-adv-x="1774" />
<glyph unicode="&#x2004;" horiz-adv-x="591" />
<glyph unicode="&#x2005;" horiz-adv-x="443" />
<glyph unicode="&#x2006;" horiz-adv-x="295" />
<glyph unicode="&#x2007;" horiz-adv-x="295" />
<glyph unicode="&#x2008;" horiz-adv-x="221" />
<glyph unicode="&#x2009;" horiz-adv-x="354" />
<glyph unicode="&#x200a;" horiz-adv-x="98" />
<glyph unicode="&#x2010;" horiz-adv-x="894" d="M166 530v93h563v-93h-563z" />
<glyph unicode="&#x2011;" horiz-adv-x="894" d="M166 530v93h563v-93h-563z" />
<glyph unicode="&#x2012;" horiz-adv-x="894" d="M166 530v93h563v-93h-563z" />
<glyph unicode="&#x2013;" horiz-adv-x="1024" d="M0 528v93h1024v-93h-1024z" />
<glyph unicode="&#x2014;" horiz-adv-x="2048" d="M0 528v93h2048v-93h-2048z" />
<glyph unicode="&#x2018;" horiz-adv-x="395" d="M131 1001l59 365h80l-37 -365h-102z" />
<glyph unicode="&#x2019;" horiz-adv-x="395" d="M150 1001l36 365h103l-60 -365h-79z" />
<glyph unicode="&#x201a;" horiz-adv-x="395" d="M147 -219l37 364h103l-60 -364h-80z" />
<glyph unicode="&#x201c;" horiz-adv-x="679" d="M143 1001l59 365h80l-37 -365h-102zM428 1001l59 365h80l-37 -365h-102z" />
<glyph unicode="&#x201d;" horiz-adv-x="679" d="M162 1001l36 365h103l-60 -365h-79zM447 1001l36 365h103l-60 -365h-79z" />
<glyph unicode="&#x201e;" horiz-adv-x="679" d="M147 -219l37 364h103l-60 -364h-80zM434 -219l37 364h103l-60 -364h-80z" />
<glyph unicode="&#x2022;" horiz-adv-x="696" d="M129 606q0 89 65 155q62 64 154 64t154 -64q65 -66 65 -155q0 -90 -64.5 -154.5t-154.5 -64.5t-154.5 64.5t-64.5 154.5z" />
<glyph unicode="&#x2026;" horiz-adv-x="1390" d="M166 -4v143h139v-143h-139zM637 -4v143h139v-143h-139zM1108 -4v143h139v-143h-139z" />
<glyph unicode="&#x202f;" horiz-adv-x="354" />
<glyph unicode="&#x2039;" horiz-adv-x="618" d="M145 479l217 393h101l-215 -393l215 -393h-101z" />
<glyph unicode="&#x203a;" horiz-adv-x="618" d="M156 86l215 393l-215 393h100l217 -393l-217 -393h-100z" />
<glyph unicode="&#x205f;" horiz-adv-x="443" />
<glyph unicode="&#x20ac;" d="M51 459l31 82h158q-4 27 -4 52v105q0 25 4 50h-189l31 81h168q55 343 297 458q84 40 172 40t142 -15.5t96 -37.5q57 -29 118 -82l-61 -72q-10 8 -31.5 27.5t-55.5 38.5q-85 49 -186 49q-150 0 -251 -104.5t-136 -301.5h549l-31 -81h-528q-4 -25 -4 -50v-51q0 -58 4 -106 h559l-31 -82h-518q35 -193 137.5 -296.5t255 -103.5t267.5 115l61 -72q-79 -79 -207 -118q-57 -17 -147.5 -17t-174 39t-142.5 106q-118 134 -152 347h-201z" />
<glyph unicode="&#x2122;" horiz-adv-x="1902" d="M51 1284v82h697v-82h-302v-702h-90v702h-305zM918 582l18 784h100l271 -455l262 455h114l21 -784h-90l-19 667l-264 -446h-57l-256 430l-19 -651h-81z" />
<glyph unicode="&#xe000;" horiz-adv-x="942" d="M0 0v942h942v-942h-942z" />
</font>
</defs>
</svg>
