<?xml version="1.0" standalone="no"?>
<!DOCTYPE svg PUBLIC "-//W3C//DTD SVG 1.1//EN" "http://www.w3.org/Graphics/SVG/1.1/DTD/svg11.dtd" >
<svg xmlns="http://www.w3.org/2000/svg">
<metadata></metadata>
<defs>
<font id="EffraBold" horiz-adv-x="1116" >
<font-face units-per-em="2048" ascent="1638" descent="-410" />
<missing-glyph horiz-adv-x="370" />
<glyph unicode="&#xfb01;" horiz-adv-x="1198" d="M29 729v232h155v12q0 229 153 338q130 92 343 92q94 0 200.5 -25.5t190.5 -77.5l-110 -202q-138 73 -255.5 73t-173 -37.5t-55.5 -129.5v-43h602v-961h-293v729h-309v-729h-293v729h-155z" />
<glyph unicode="&#xfb02;" horiz-adv-x="1200" d="M29 729v232h155v24q0 220 144 326q125 92 344 92q243 0 418 -107v-1296h-293v1149q-50 20 -140.5 20t-135 -39.5t-44.5 -132.5v-36h205v-232h-205v-729h-293v729h-155z" />
<glyph unicode="&#xfb03;" horiz-adv-x="1835" d="M29 729v232h155v32q0 207 120 316q104 94 265 94q148 0 256 -86l-108 -193q-57 41 -111.5 41t-92.5 -33.5t-38 -111.5v-59h346v12q0 223 149 335q128 95 339 95q233 0 399 -103l-111 -202q-138 73 -255 73t-172.5 -38.5t-55.5 -143.5v-28h602v-961h-293v729h-309v-729 h-293v729h-342v-729h-295v729h-155z" />
<glyph unicode="&#xfb04;" horiz-adv-x="1837" d="M29 729v232h155v49q0 190 122 298q107 95 263 95q148 0 256 -86l-108 -193q-57 41 -111.5 41t-92.5 -33.5t-38 -111.5v-59h346v24q0 220 145 326q124 92 343 92q184 0 342 -69q45 -19 75 -38v-1296h-292v1149q-50 20 -141 20t-135 -39.5t-44 -132.5v-36h205v-232h-205 v-729h-293v729h-342v-729h-295v729h-155z" />
<glyph horiz-adv-x="0" />
<glyph horiz-adv-x="2048" />
<glyph unicode="&#xd;" horiz-adv-x="358" />
<glyph unicode=" "  horiz-adv-x="370" />
<glyph unicode="&#x09;" horiz-adv-x="370" />
<glyph unicode="&#xa0;" horiz-adv-x="370" />
<glyph unicode="!" horiz-adv-x="598" d="M137 0v315h322v-315h-322zM137 1366h324l-12 -922h-299z" />
<glyph unicode="&#x22;" horiz-adv-x="864" d="M96 856v510h273v-510h-273zM493 856v510h273v-510h-273z" />
<glyph unicode="#" horiz-adv-x="1492" d="M109 297v207h245l72 266h-190v207h245l84 311h232l-84 -311h254l84 311h231l-84 -311h184v-207h-239l-72 -266h184v-207h-239l-80 -297h-231l79 297h-254l-79 -297h-232l80 297h-190zM586 504h254l71 266h-254z" />
<glyph unicode="$" d="M20 184l185 205q59 -63 152.5 -113.5t209.5 -50.5q124 0 169 69q16 25 16 62q0 63 -59.5 101.5t-200.5 72.5l-50 17q-358 101 -358 385q0 158 101.5 257t279.5 122v182h197v-182q131 -16 213.5 -67.5t130.5 -96.5l-177 -197q-127 113 -264 113q-125 0 -175 -67 q-19 -25 -19 -58q0 -66 61.5 -97.5t163 -57t177 -56.5t135.5 -79q134 -106 134 -288q0 -152 -110 -256q-103 -99 -270 -124v-199h-197v190q-147 14 -260 74.5t-185 138.5z" />
<glyph unicode="%" horiz-adv-x="1894" d="M98 954q0 174 87 271.5t243 97.5t242.5 -97.5t86.5 -271.5t-86.5 -273t-242.5 -99t-243 99t-87 273zM319 953q0 -85 28 -139t81 -54t80.5 54t27.5 139t-27.5 139.5t-80.5 54.5t-81 -54.5t-28 -139.5zM399 0l823 1290h256l-819 -1290h-260zM1133 352q0 174 87 271.5 t243 97.5t242.5 -97.5t86.5 -271.5t-86.5 -273t-242.5 -99t-243 99t-87 273zM1354 351q0 -85 28 -139t81 -54t80.5 54t27.5 139t-27.5 139.5t-80.5 54.5t-81 -54.5t-28 -139.5z" />
<glyph unicode="&#x26;" horiz-adv-x="1363" d="M57 365q0 263 269 426q-90 121 -90 256q0 149 113 251q117 105 285.5 105t261.5 -69.5t140 -168.5l-209 -129q-60 127 -161 127q-61 0 -99.5 -35.5t-38.5 -83.5q0 -70 72 -157l320 -379l184 211l199 -174l-211 -240l258 -305h-363l-96 113q-92 -76 -181 -111t-196.5 -35 t-190.5 30t-143 82q-123 108 -123 286zM346 382q0 -67 50 -112t122.5 -45t117 22.5t91.5 63.5l-250 293q-74 -53 -102.5 -104t-28.5 -118z" />
<glyph unicode="'" horiz-adv-x="464" d="M96 856v510h273v-510h-273z" />
<glyph unicode="(" horiz-adv-x="659" d="M115 627q0 381 141 706q33 76 53 113h295q-104 -193 -162 -547q-22 -131 -22 -271t21.5 -272.5t50.5 -241.5q50 -193 112 -304h-295q-119 220 -171 530q-23 133 -23 287z" />
<glyph unicode=")" horiz-adv-x="659" d="M55 -190q107 198 163 545q22 132 22 272.5t-21.5 271.5t-50.5 241q-53 201 -113 306h295q120 -222 172 -532q23 -134 23 -287q0 -379 -141 -706q-33 -75 -54 -111h-295z" />
<glyph unicode="*" horiz-adv-x="1009" d="M100 958l222 103l-222 102l115 199l195 -135l-21 235h229l-16 -237l193 133l114 -199l-219 -96l219 -102l-114 -199l-195 135l18 -238h-229l23 234l-197 -133z" />
<glyph unicode="+" d="M150 535v235h286v291h242v-291h289v-235h-289v-287h-242v287h-286z" />
<glyph unicode="," horiz-adv-x="579" d="M119 -293l129 293h-117v328h338v-326l-172 -295h-178z" />
<glyph unicode="-" horiz-adv-x="911" d="M131 432v281h649v-281h-649z" />
<glyph unicode="." horiz-adv-x="583" d="M125 0v326h334v-326h-334z" />
<glyph unicode="/" horiz-adv-x="917" d="M41 -33l545 1436h291l-539 -1436h-297z" />
<glyph unicode="0" d="M49 653q0 476 288 625q95 49 223 49t224.5 -49t159.5 -137q123 -174 123 -488q0 -486 -283 -635q-96 -51 -225 -51t-223 50.5t-158 140.5q-129 179 -129 495zM348 653q0 -292 114 -385q40 -32 96 -32t96 32.5t66 89.5q48 107 48 295q0 283 -116 373q-40 31 -95 31 q-106 0 -161 -116q-48 -103 -48 -288z" />
<glyph unicode="1" d="M113 1079l383 211h243v-1038h211v-252h-721v252h224v717l-215 -115z" />
<glyph unicode="2" d="M63 1077q103 171 303 229q76 21 179 21t184.5 -31.5t136.5 -83.5q107 -101 107 -251q0 -213 -265 -415q-175 -133 -221.5 -185t-46.5 -99h539v-262h-879v174q0 242 286 458q75 56 138.5 106t105.5 98.5t42 98.5t-39 93t-129 43q-117 0 -192 -97q-19 -26 -33 -46z" />
<glyph unicode="3" d="M20 125l160 209q132 -115 277 -115q94 0 156.5 51.5t62.5 133.5t-48 137t-138.5 55t-139.5 -23l-76 121l330 338h-481v256h811v-211l-268 -303q154 -29 232.5 -129t78.5 -252q0 -197 -153 -316q-145 -112 -351 -112q-276 0 -453 160z" />
<glyph unicode="4" d="M59 236v227l557 827h293v-823h131v-231h-131v-236h-274v236h-576zM324 467h311v477z" />
<glyph unicode="5" d="M33 129l157 205q122 -113 269 -113q108 0 167 63q52 56 52 142q0 73 -52 129q-60 66 -159 66t-199 -39l-135 100l113 606h696v-258h-493l-39 -207q40 17 131.5 17t171.5 -29t138 -83q122 -114 122 -300q0 -199 -123 -324q-137 -139 -383 -139q-256 0 -434 164z" />
<glyph unicode="6" d="M88 600q0 162 38 293t114 227q161 207 440 207q111 0 189.5 -28.5t127.5 -53.5l-110 -227q-115 55 -188.5 55t-124 -21.5t-89.5 -61.5q-87 -89 -98 -218q118 76 229 76t188 -31t130 -86q110 -114 110 -305q0 -198 -120 -324q-130 -137 -340 -137q-348 0 -458 351 q-38 122 -38 284zM381 541q0 -170 63 -254q50 -68 138 -68t138 58.5t50 147.5t-51 138t-129 49q-123 0 -209 -71z" />
<glyph unicode="7" d="M104 1028v262h871v-248q-133 -227 -220 -436q-160 -384 -225 -606h-309q69 225 177 469q178 402 276 559h-570z" />
<glyph unicode="8" d="M51 367q0 125 62.5 211t162.5 133q-61 37 -108 107.5t-47 153.5t30.5 146.5t88.5 109.5q123 99 317 99q203 0 323 -97q115 -94 115 -245q0 -94 -49 -163.5t-110 -106.5q104 -47 165.5 -133t61.5 -211q0 -155 -121 -269q-141 -135 -385 -135q-246 0 -385 129 q-121 112 -121 271zM346 374q0 -44 18.5 -77t47.5 -55q57 -41 145 -41q85 0 129.5 31.5t63 64.5t18.5 77t-18.5 77.5t-49.5 60.5q-55 49 -145 72q-140 -34 -191 -132q-18 -34 -18 -78zM389 973q0 -61 48 -108t120 -70q72 23 119 69.5t47 109.5t-46 103.5t-119 40.5t-121 -42 t-48 -103z" />
<glyph unicode="9" d="M74 864q0 196 120 326q126 137 338 137q348 0 456 -360q38 -127 38 -285.5t-32.5 -285t-101.5 -221.5q-151 -208 -437 -208q-111 0 -201 28t-137 54l112 230q120 -60 239.5 -60t186 83t76.5 210q-112 -74 -231 -74t-194 35t-126 93q-106 122 -106 298zM348 873 q0 -85 48 -139t129 -54t127 21.5t85 50.5q0 246 -121 302q-36 17 -79 17q-86 0 -137.5 -56.5t-51.5 -141.5z" />
<glyph unicode=":" horiz-adv-x="583" d="M125 0v326h334v-326h-334zM125 635v326h334v-326h-334z" />
<glyph unicode=";" horiz-adv-x="593" d="M125 -293l129 293h-117v328h338v-326l-172 -295h-178zM139 635v326h334v-326h-334z" />
<glyph unicode="&#x3c;" d="M137 563v174l727 389l107 -208l-508 -265l516 -264l-115 -215z" />
<glyph unicode="=" d="M150 338v235h817v-235h-817zM150 713v235h817v-235h-817z" />
<glyph unicode="&#x3e;" d="M154 389l516 264l-508 265l106 208l727 -389v-174l-727 -389z" />
<glyph unicode="?" horiz-adv-x="1077" d="M63 1198q115 132 305 184q74 21 167.5 21t175.5 -25.5t141 -75.5q127 -106 127 -278q0 -193 -168 -311q-37 -29 -69.5 -53.5t-55.5 -51.5q-49 -58 -49 -137v-27h-281v27q0 223 162 342q85 63 110 87q54 52 54 110.5t-51 90.5t-117 32q-145 0 -270 -125zM336 0v315h321 v-315h-321z" />
<glyph unicode="@" horiz-adv-x="1966" d="M80 560.5q0 209.5 76.5 369.5t203.5 265t293 157.5t360.5 52.5t360.5 -56.5t278 -162.5q232 -217 232 -596q0 -322 -152 -488q-122 -133 -296 -133q-92 0 -149.5 28t-98.5 91q-63 -61 -136 -91t-156 -30t-139.5 15.5t-104.5 51.5q-111 83 -111 234q0 165 123 256 q118 86 315 86q126 0 160 -8v37q0 66 -52.5 96.5t-119.5 30.5q-159 0 -275 -80l-123 180q157 127 437 127q190 0 300.5 -96t110.5 -270v-340q0 -100 72 -101q66 0 115 101q55 116 55 292.5t-53.5 292t-144.5 189.5q-173 141 -468 141q-270 0 -457 -143q-225 -171 -225 -496 q0 -162 65 -310q43 -95 101 -157l-166 -133q-81 66 -148 210q-83 178 -83 387.5zM821 299q0 -57 37 -88t106 -31t122 43t53 123v80l-97 6q-221 0 -221 -133z" />
<glyph unicode="A" horiz-adv-x="1382" d="M14 0l510 1366h342l500 -1366h-338l-104 313h-482l-104 -313h-324zM514 553h336l-166 516z" />
<glyph unicode="B" horiz-adv-x="1257" d="M133 0v1366h512q237 0 359 -108q104 -94 104 -248q0 -113 -79 -202q-59 -66 -128 -83q173 -37 249 -191q30 -61 30 -143q0 -391 -535 -391h-512zM434 238h201q96 0 140 23.5t67.5 58t23.5 93t-22.5 93.5t-57.5 54q-59 34 -151 34h-201v-356zM434 819h182q126 0 170 81 q17 30 17 74t-16.5 73.5t-42.5 46.5q-48 32 -128 32h-182v-307z" />
<glyph unicode="C" horiz-adv-x="1394" d="M80 678q0 310 196 513q93 97 223 153.5t303.5 56.5t316.5 -69.5t237 -201.5l-211 -202q-135 190 -346 190q-183 0 -291 -126q-107 -125 -107 -306q0 -183 107 -303q110 -123 285 -123q188 0 299 116q32 34 63 68l211 -192q-144 -198 -402 -264q-87 -23 -212.5 -23 t-254 53.5t-221.5 148.5q-196 199 -196 511z" />
<glyph unicode="D" horiz-adv-x="1468" d="M133 0v1366h516q331 0 523 -166q206 -177 206 -524q0 -326 -208 -507q-193 -169 -523 -169h-514zM442 274h189q205 0 315.5 107.5t110.5 296.5q0 298 -236 386q-80 30 -190 30h-189v-820z" />
<glyph unicode="E" horiz-adv-x="1187" d="M133 0v1366h934v-270h-625v-267h486v-262h-486v-295h670v-272h-979z" />
<glyph unicode="F" horiz-adv-x="1103" d="M133 0v1366h918v-272h-609v-310h463v-264h-463v-520h-309z" />
<glyph unicode="G" horiz-adv-x="1480" d="M80 680q0 311 196 513q203 208 510 208q363 0 560 -260l-209 -199q-66 78 -145 127t-183 49t-178 -34.5t-125 -93.5q-105 -123 -105 -310q0 -194 117 -314q114 -118 288 -118t275 82v172h-241v250h526v-592q-222 -193 -573 -193q-330 0 -525 199q-188 192 -188 514z" />
<glyph unicode="H" horiz-adv-x="1476" d="M133 0v1366h309v-524h592v524h309v-1366h-309v561h-592v-561h-309z" />
<glyph unicode="I" horiz-adv-x="575" d="M133 0v1366h309v-1366h-309z" />
<glyph unicode="J" horiz-adv-x="1073" d="M20 166l201 190q100 -120 234 -120q86 0 136 51t50 149v930h309v-950q0 -223 -144 -344q-128 -109 -329 -109q-297 0 -457 203z" />
<glyph unicode="K" horiz-adv-x="1339" d="M133 0v1366h309v-545l457 545h358l-469 -532l533 -834h-375l-364 596l-140 -156v-440h-309z" />
<glyph unicode="L" horiz-adv-x="1144" d="M133 0v1366h309v-1092h654v-274h-963z" />
<glyph unicode="M" horiz-adv-x="1640" d="M111 0l63 1366h293l356 -641l348 641h295l64 -1366h-309l-39 893l-283 -533h-160l-299 527l-34 -887h-295z" />
<glyph unicode="N" horiz-adv-x="1458" d="M133 0v1366h295l592 -887v887h305v-1366h-281l-606 903v-903h-305z" />
<glyph unicode="O" horiz-adv-x="1581" d="M80 685q0 153 54 284t149.5 227t225.5 151.5t282 55.5t281.5 -55.5t225.5 -151.5q203 -205 203 -512q0 -152 -54 -284t-149.5 -228t-225 -151.5t-281.5 -55.5t-282 55.5t-225.5 151.5t-149.5 228t-54 285zM401 688q0 -180 104 -303q109 -129 286 -129q174 0 283 129 q104 123 104 303q0 181 -104 302q-107 126 -283 126q-179 0 -286 -126q-104 -121 -104 -302z" />
<glyph unicode="P" horiz-adv-x="1183" d="M133 0v1366h498q235 0 365 -134q114 -118 114 -306q0 -212 -140 -332q-133 -113 -325 -113h-211v-481h-301zM434 731h180q86 0 136.5 52.5t50.5 137.5t-51.5 139t-137.5 54h-178v-383z" />
<glyph unicode="Q" horiz-adv-x="1581" d="M80 685q0 153 54 284t149.5 227t225.5 151.5t282 55.5t281.5 -55.5t225.5 -151.5q203 -205 203 -515t-213 -517l144 -178l-168 -140l-154 191q-148 -72 -309.5 -72t-291.5 55.5t-225.5 151.5t-149.5 228t-54 285zM401 688q0 -180 104 -303q109 -129 286 -129q68 0 124 20 l-147 187l166 139l156 -196q88 117 88 282q0 181 -104 302q-107 126 -283 126q-179 0 -286 -126q-104 -121 -104 -302z" />
<glyph unicode="R" horiz-adv-x="1243" d="M133 0v1366h508q228 0 359 -126q120 -115 120 -302q0 -268 -223 -391l303 -547h-340l-254 502h-172v-502h-301zM434 750h191q86 0 135 51t49 132t-49 130t-135 49h-191v-362z" />
<glyph unicode="S" horiz-adv-x="1210" d="M37 193l199 215q156 -168 350 -168q74 0 118 30q78 52 78 123.5t-73.5 113.5t-192.5 71.5t-185.5 64.5t-114.5 84q-101 103 -101 254q0 181 123 296q136 126 376 126q259 0 413 -135q36 -31 54 -49l-178 -197q-157 123 -293 123q-65 0 -106 -27q-72 -49 -72 -110 q0 -115 277 -177q405 -96 405 -440q0 -182 -152 -305q-150 -121 -372 -121q-346 0 -553 228z" />
<glyph unicode="T" horiz-adv-x="1280" d="M43 1094v272h1194v-272h-440v-1094h-312v1094h-442z" />
<glyph unicode="U" horiz-adv-x="1392" d="M123 518v848h311v-809q0 -297 261 -297t261 297v809h314v-848q0 -251 -155 -400q-160 -155 -419 -155q-263 0 -418 153t-155 402z" />
<glyph unicode="V" horiz-adv-x="1359" d="M14 1366h342l334 -997l326 997h327l-501 -1366h-326z" />
<glyph unicode="W" horiz-adv-x="1853" d="M20 1366h332l201 -989l240 952h280l242 -952l198 989h320l-348 -1366h-326l-233 893l-238 -893h-326z" />
<glyph unicode="X" horiz-adv-x="1312" d="M4 0l461 702l-451 664h379l256 -401l246 401h342l-422 -643l492 -723h-381l-295 459l-287 -459h-340z" />
<glyph unicode="Y" horiz-adv-x="1302" d="M14 1366h351l297 -516l288 516h336l-479 -793v-573h-313v571z" />
<glyph unicode="Z" horiz-adv-x="1300" d="M80 0v252l747 842h-712v272h1091v-254l-733 -842h748v-270h-1141z" />
<glyph unicode="[" horiz-adv-x="714" d="M145 -190v1636h514v-240h-239v-1155h239v-241h-514z" />
<glyph unicode="\" horiz-adv-x="917" d="M41 1403h291l545 -1436h-297z" />
<glyph unicode="]" horiz-adv-x="714" d="M55 51h240v1155h-240v240h514v-1636h-514v241z" />
<glyph unicode="^" horiz-adv-x="1155" d="M90 614l361 752h254l360 -752h-295l-192 433l-193 -433h-295z" />
<glyph unicode="_" horiz-adv-x="1024" d="M0 -133h1024v-113h-1024v113z" />
<glyph unicode="`" horiz-adv-x="964" d="M266 1397h293l98 -291h-217z" />
<glyph unicode="a" horiz-adv-x="1054" d="M51 268q0 165 127 259q121 89 316 89q138 0 172 -8v21q0 67 -56 105q-46 32 -129 32q-156 0 -272 -80l-121 180q171 127 412 127t345.5 -117.5t104.5 -316.5v-559h-276l-8 90q-102 -119 -291 -119q-123 0 -212 63q-112 79 -112 234zM336 299q0 -119 143 -119q74 0 129 44 q58 47 58 122v78q-40 8 -105 8q-225 0 -225 -133z" />
<glyph unicode="b" horiz-adv-x="1150" d="M109 37v1329h294v-477q41 43 112 67.5t156.5 24.5t166 -39t134.5 -106q111 -136 111 -338q0 -242 -147 -384q-153 -147 -414 -147q-214 0 -413 70zM403 233q50 -20 152.5 -20t166.5 76t64 198q0 159 -103 221q-36 21 -87 21q-98 0 -145.5 -54t-47.5 -145v-297z" />
<glyph unicode="c" horiz-adv-x="997" d="M66 481q0 215 146 363q148 149 372 149q243 0 389 -157l-178 -193q-33 37 -80 65.5t-112.5 28.5t-107.5 -21.5t-72 -55.5q-61 -71 -61 -179q0 -102 61 -175q68 -81 179 -81t197 94l172 -192q-59 -66 -156.5 -113t-222.5 -47t-220.5 38t-163.5 107q-142 144 -142 369z" />
<glyph unicode="d" horiz-adv-x="1157" d="M66 467q0 243 164 387q145 127 343 127q93 0 183 -33v418h293v-1366h-275l-12 96q-45 -53 -116 -89t-160 -36t-165.5 35t-132.5 100q-122 138 -122 361zM362 468.5q0 -111.5 51.5 -178.5t153.5 -67q92 0 145 63q44 54 44 148v262q-60 35 -164.5 35t-167 -75.5t-62.5 -187 z" />
<glyph unicode="e" horiz-adv-x="1095" d="M66 483q0 214 130 357q141 153 365 153q225 0 353 -155q122 -145 122 -396v-49h-684q2 -78 68.5 -136t183.5 -58q170 0 291 92l121 -187q-16 -10 -49 -33.5t-85 -46.5q-135 -57 -273 -57t-236.5 38t-166.5 105q-140 138 -140 373zM352 582h406q0 67 -50 120 q-56 62 -149 62q-95 0 -155 -62q-52 -54 -52 -120z" />
<glyph unicode="f" horiz-adv-x="729" d="M29 729v232h155v49q0 191 123 298q109 95 271 95q183 0 303 -100l-125 -187q-63 47 -134 47t-108 -39t-37 -110v-53h228v-232h-228v-729h-293v729h-155z" />
<glyph unicode="g" horiz-adv-x="1148" d="M66 463q0 233 152 375.5t386 142.5t434 -72v-878q0 -238 -131 -351.5t-358 -113.5q-248 0 -402 102l119 209q121 -74 242 -74q237 0 237 213v68q-92 -80 -245 -80q-203 0 -320 130q-114 126 -114 329zM362 479q0 -110 50.5 -171.5t146.5 -61.5q189 0 189 182v289 q-58 20 -127.5 20t-116.5 -21.5t-79 -57.5q-63 -69 -63 -179z" />
<glyph unicode="h" horiz-adv-x="1155" d="M109 0v1366h292v-498q47 55 125 85t158 30q166 0 265.5 -98.5t99.5 -290.5v-594h-293v549q0 84 -43 131t-102.5 47t-96.5 -17.5t-62 -45.5q-49 -58 -49 -148v-516h-294z" />
<glyph unicode="i" horiz-adv-x="528" d="M106 1102v264h316v-264h-316zM117 0v961h295v-961h-295z" />
<glyph unicode="j" horiz-adv-x="542" d="M-219 -322l108 199q61 -37 124 -37q118 0 118 164v957h293v-912q0 -211 -70 -319q-90 -140 -299 -140q-159 0 -274 88zM119 1102v264h315v-264h-315z" />
<glyph unicode="k" horiz-adv-x="1091" d="M109 0v1366h294v-709l293 304h334l-344 -355l391 -606h-342l-246 406l-86 -89v-317h-294z" />
<glyph unicode="l" horiz-adv-x="512" d="M109 0v1366h294v-1366h-294z" />
<glyph unicode="m" horiz-adv-x="1767" d="M109 0v961h282l10 -107q106 129 282.5 129t279.5 -133q59 63 144 98t177 35q184 0 281.5 -104.5t97.5 -284.5v-594h-295v547q0 180 -151 180q-86 0 -137.5 -59.5t-51.5 -151.5v-516h-285v547q0 180 -151 180q-84 0 -136.5 -59.5t-52.5 -151.5v-516h-294z" />
<glyph unicode="n" horiz-adv-x="1150" d="M111 0v961h282l8 -105q47 57 124 92t161 35q166 0 263.5 -98.5t97.5 -290.5v-594h-295v553q0 80 -40 127t-100.5 47t-97.5 -17.5t-62 -45.5q-49 -58 -49 -148v-516h-292z" />
<glyph unicode="o" horiz-adv-x="1163" d="M66 481q0 216 142 363q146 149 374 149q225 0 370 -149q144 -148 144 -363t-144 -363q-147 -151 -370 -151q-226 0 -374 151q-142 147 -142 363zM350 481q0 -101 60 -178q61 -80 172 -80q107 0 170 80q59 73 59 178q0 169 -131 235q-43 21 -98 21q-109 0 -172 -79 q-60 -74 -60 -177z" />
<glyph unicode="p" horiz-adv-x="1167" d="M109 -410v1371h282q4 -30 10 -105q47 59 121 91t166 32t172 -41t134 -110q106 -136 106 -341q0 -250 -162 -393q-142 -125 -340 -125q-70 0 -115 12.5t-82 24.5v-416h-292zM401 254q57 -39 168 -39t173.5 72.5t62.5 193.5q0 167 -108 225q-38 21 -90 21t-90 -18.5 t-63 -48.5q-53 -63 -53 -150v-256z" />
<glyph unicode="q" horiz-adv-x="1155" d="M66 469q0 223 147 365q153 147 391.5 147t442.5 -72v-1319h-295v465q-77 -82 -242 -82q-204 0 -324 135t-120 361zM362 467q0 -102 50 -171q52 -73 153 -73q187 0 187 197v293q-52 18 -134 18q-127 0 -191.5 -71.5t-64.5 -192.5z" />
<glyph unicode="r" horiz-adv-x="804" d="M109 0v961h282l10 -121q105 139 269 139q72 0 121 -18l-48 -261q-45 14 -106 15q-104 0 -169 -62.5t-65 -177.5v-475h-294z" />
<glyph unicode="s" horiz-adv-x="987" d="M61 109l146 188q47 -43 124 -71.5t145.5 -28.5t111.5 16t43 63q0 40 -43 63q-45 24 -140 49t-149.5 49t-96.5 59q-93 76 -93 198q0 131 115 216q114 83 290 83q226 0 385 -108l-125 -195q-121 80 -247 80t-126 -72q0 -47 63.5 -69.5t191.5 -56.5q262 -71 262 -298 q0 -149 -132 -232q-120 -75 -271 -75q-312 0 -454 142z" />
<glyph unicode="t" horiz-adv-x="856" d="M29 729v232h151v290h295v-290h248v-232h-248v-379q0 -145 115 -145q65 0 139 51l119 -180q-139 -111 -303 -111q-365 0 -365 402v362h-151z" />
<glyph unicode="u" horiz-adv-x="1148" d="M104 365v596h295v-553q0 -82 40 -129.5t101.5 -47.5t96.5 17.5t59 46.5q49 57 49 147v519h293v-961h-282l-8 102q-47 -55 -124 -91t-161 -36q-166 0 -262.5 98.5t-96.5 291.5z" />
<glyph unicode="v" d="M10 961h328l227 -631l219 631h322l-412 -961h-278z" />
<glyph unicode="w" horiz-adv-x="1574" d="M14 961h303l168 -617l187 617h235l189 -617l168 617h297l-330 -961h-266l-181 537l-178 -537h-262z" />
<glyph unicode="x" horiz-adv-x="1079" d="M12 0l357 481l-351 480h353l172 -256l174 256h321l-338 -459l369 -502h-352l-191 276l-192 -276h-322z" />
<glyph unicode="y" horiz-adv-x="1126" d="M10 961h336l240 -607l217 607h313l-393 -955q-33 -80 -64.5 -158.5t-77.5 -141.5q-103 -140 -280 -140q-149 0 -258 80l119 202q65 -47 115.5 -47t82 30t60.5 101l29 78z" />
<glyph unicode="z" horiz-adv-x="1003" d="M82 0v199l471 524h-451v238h824v-203l-473 -527h475v-231h-846z" />
<glyph unicode="{" horiz-adv-x="634" d="M57 547v164q78 0 111 43t39 106l29 338q16 178 100 248h270q-83 -83 -102 -287l-29 -338q-6 -74 -54 -125t-106 -67q72 -23 111 -83.5t55 -170.5l27 -338q4 -59 32.5 -125t65.5 -102h-270q-84 70 -100 249l-29 338q-6 63 -39 106.5t-111 43.5z" />
<glyph unicode="|" horiz-adv-x="538" d="M135 -336v2042h266v-2042h-266z" />
<glyph unicode="}" horiz-adv-x="634" d="M29 -190q37 37 65.5 102t32.5 125l27 338q16 111 55 171t110 83q-57 16 -105 67.5t-54 124.5l-29 338q-19 204 -102 287h270q84 -70 100 -248l29 -338q6 -63 39 -106t111 -43v-164q-78 0 -111 -43t-39 -107l-29 -338q-16 -181 -100 -249h-270z" />
<glyph unicode="~" horiz-adv-x="1030" d="M72 649q130 150 288 150q62 0 118.5 -31t89 -44t81.5 -13t91 25.5t89 66.5l129 -205q-71 -96 -194 -140q-41 -14 -85 -14t-81 14.5t-70 31.5q-86 47 -142 47t-98 -27t-89 -66z" />
<glyph unicode="&#xa1;" horiz-adv-x="598" d="M137 -403l13 919h299l12 -919h-324zM137 645v316h322v-316h-322z" />
<glyph unicode="&#xa2;" d="M137 641q0 190 118 331q117 138 304 173v184h180v-182q187 -23 305 -152l-178 -192q-33 37 -80 65.5t-112 28.5t-107.5 -21.5t-72.5 -56.5q-60 -72 -60 -178q0 -101 62 -179q60 -77 176 -77t198 96l172 -194q-119 -129 -303 -154v-172h-180v174q-192 28 -307 167 q-115 140 -115 339z" />
<glyph unicode="&#xa3;" d="M76 551v197h149v124q0 186 105 310q123 145 350 145q238 0 387 -166l-180 -196q-37 39 -79 64.5t-96 25.5t-87 -18.5t-53 -48.5q-37 -58 -37 -148v-92h364v-197h-364v-279h538v-272h-848v551h-149z" />
<glyph unicode="&#xa4;" d="M55 326l133 137q-51 92 -51 201t49 194l-131 135l164 166l133 -135q95 51 199 51t203 -59l139 143l166 -166l-146 -147q45 -92 45 -187.5t-47 -183.5l148 -149l-166 -164l-143 145q-94 -53 -201.5 -53t-190.5 47l-139 -139zM365 664q0 -76 53 -129.5t129 -53.5t129 53.5 t53 129.5t-53 129t-129 53t-129 -53t-53 -129z" />
<glyph unicode="&#xa5;" d="M-2 1290h328l237 -524l238 524h317l-317 -590h188v-168h-276v-143h276v-168h-276v-221h-310v221h-268v168h268v143h-268v168h178z" />
<glyph unicode="&#xa6;" horiz-adv-x="538" d="M135 -336v776h266v-776h-266zM135 930v776h266v-776h-266z" />
<glyph unicode="&#xa7;" horiz-adv-x="962" d="M80 334l158 235l417 -272q197 -128 193 -342q0 -162 -114 -275q-116 -114 -296 -114q-105 0 -213 50q-62 29 -108 71l143 215q37 -25 82 -49.5t98 -24.5t86 34t33 72t-14.5 67.5t-67.5 64.5zM102 1012q0 161 114 275q116 116 296 116q157 0 282 -93q27 -20 40 -30 l-142 -215q-110 74 -172.5 74t-94.5 -33t-32 -71t14.5 -68.5t67.5 -65.5l397 -266l-157 -236l-418 271q-195 124 -195 342z" />
<glyph unicode="&#xa8;" horiz-adv-x="804" d="M78 1135v233h252v-233h-252zM473 1135v233h252v-233h-252z" />
<glyph unicode="&#xa9;" horiz-adv-x="1650" d="M115 686q0 150 55 280t150.5 226t225.5 152.5t279 56.5q150 0 279 -56.5t224 -152.5t150.5 -226t55.5 -280t-55.5 -280t-151.5 -227q-206 -208 -504 -208t-503 208q-95 97 -150 227.5t-55 279.5zM297 686q0 -232 151 -388q151 -157 375 -157q223 0 376 157 q151 155 151 388q0 230 -151 387q-152 158 -374 158q-225 0 -375 -158q-153 -160 -153 -387zM442 692q0 164 110 276q112 113 282 113q106 0 187 -50t130 -122l-143 -110q-23 39 -66 68.5t-98 29.5q-90 0 -143.5 -59.5t-53.5 -146.5t54.5 -146.5t148 -59.5t158.5 99 l143 -115q-49 -72 -130 -121t-178 -49t-169 29.5t-123 81.5q-109 113 -109 282z" />
<glyph unicode="&#xaa;" horiz-adv-x="786" d="M76 846q0 112 93 168q83 51 208 51q49 0 104 -6v24q0 41 -32.5 62.5t-79.5 21.5q-100 0 -189 -57l-88 127q118 90 297 90q129 0 210 -64.5t81 -187.5v-416h-191q0 24 -4 54q-74 -74 -184 -74q-95 0 -157 53q-68 56 -68 154zM272 860q0 -70 95 -69q49 0 81.5 28.5 t32.5 71.5v39q-30 6 -90.5 6t-89.5 -22.5t-29 -53.5z" />
<glyph unicode="&#xab;" horiz-adv-x="1181" d="M109 494l213 403h290l-209 -403l209 -404h-290zM562 494l213 403h290l-209 -403l209 -404h-290z" />
<glyph unicode="&#xac;" d="M150 535v235h817v-522h-242v287h-575z" />
<glyph unicode="&#xad;" horiz-adv-x="911" d="M131 432v281h649v-281h-649z" />
<glyph unicode="&#xae;" horiz-adv-x="1650" d="M115 686q0 150 55 280t150.5 226t225.5 152.5t279 56.5q150 0 279 -56.5t224 -152.5t150.5 -226t55.5 -280t-55.5 -280t-151.5 -227q-206 -208 -504 -208t-503 208q-95 97 -150 227.5t-55 279.5zM297 686q0 -232 151 -388q151 -157 375 -157q223 0 376 157 q151 155 151 388q0 230 -151 387q-152 158 -374 158q-225 0 -375 -158q-153 -160 -153 -387zM549 338v711h299q130 0 206 -75q62 -61 62 -131q0 -148 -123 -212l170 -293h-205l-149 262h-78v-262h-182zM731 745h111q90 0 90 75t-90 75h-111v-150z" />
<glyph unicode="&#xaf;" horiz-adv-x="804" d="M123 1130v209h559v-209h-559z" />
<glyph unicode="&#xb0;" horiz-adv-x="735" d="M70 1074q0 62 23.5 116.5t63.5 93.5q84 82 210 82q128 0 211 -82q88 -86 88 -209t-88 -209q-83 -82 -211 -82q-126 0 -210 82q-87 85 -87 208zM254 1074q0 -50 31 -84t82 -34t82.5 34t31.5 84t-31.5 84t-82.5 34t-82 -34t-31 -84z" />
<glyph unicode="&#xb1;" d="M150 0v236h817v-236h-817zM150 535v235h286v291h242v-291h289v-235h-289v-240h-242v240h-286z" />
<glyph unicode="&#xb2;" horiz-adv-x="737" d="M76 1225q144 98 283 98t213.5 -57.5t74.5 -144.5t-30.5 -132t-76.5 -78.5t-97.5 -62.5t-94.5 -68h303v-178h-561v111q0 116 166 224q108 70 137 98t29 52q0 56 -77 56t-175 -66z" />
<glyph unicode="&#xb3;" horiz-adv-x="737" d="M45 670l100 153q89 -63 185 -63q43 0 71.5 17.5t28.5 53.5q0 74 -113 74q-48 0 -102 -14l-43 88l223 154h-282v172h505v-156l-151 -121q180 -29 180 -213q0 -107 -94 -173q-86 -60 -221 -60q-160 0 -287 88z" />
<glyph unicode="&#xb4;" horiz-adv-x="964" d="M336 1106l98 291h291l-172 -291h-217z" />
<glyph unicode="&#xb5;" horiz-adv-x="1150" d="M111 -410v1371h292v-551q0 -86 41 -132.5t125 -46.5t132.5 60.5t48.5 146.5v523h294v-961h-282q-4 23 -5 46.5t-3 45.5q-33 -47 -91.5 -77.5t-128 -30.5t-131.5 32v-426h-292z" />
<glyph unicode="&#xb6;" horiz-adv-x="1163" d="M63 985q0 205 145 300q125 81 345 81h74v-760h-74q-490 0 -490 379zM346 -250v762q77 -23 207 -23h74v-739h-281zM745 -250v1616h281v-1616h-281z" />
<glyph unicode="&#xb7;" horiz-adv-x="583" d="M125 492v326h334v-326h-334z" />
<glyph unicode="&#xb8;" horiz-adv-x="1171" d="M195 -422l28 146q83 -27 144 -27q114 0 114 61q0 56 -106 56q-74 0 -135 -25l26 139q102 25 189 25t157 -48t70 -143q0 -105 -86 -164q-79 -53 -172 -53q-143 0 -229 33z" />
<glyph unicode="&#xb9;" horiz-adv-x="737" d="M109 1169l253 136h199v-703h-223v479l-148 -73z" />
<glyph unicode="&#xba;" horiz-adv-x="866" d="M86 983q0 148 97 245q99 99 251 99q151 0 248 -99q96 -98 96 -245t-96 -245q-95 -97 -248 -97q-154 0 -251 97t-97 245zM295 983q0 -66 35.5 -111t102.5 -45t102.5 45.5t35.5 110.5q0 66 -35.5 112t-102.5 46t-102.5 -46t-35.5 -112z" />
<glyph unicode="&#xbb;" horiz-adv-x="1173" d="M117 90l209 404l-209 403h291l213 -403l-213 -404h-291zM570 90l209 404l-209 403h291l213 -403l-213 -404h-291z" />
<glyph unicode="&#xbc;" horiz-adv-x="1843" d="M109 1169l253 136h199v-703h-223v479l-148 -73zM371 0l823 1290h256l-819 -1290h-260zM1071 121v162l328 420h227v-431h80v-151h-80v-121h-200v121h-355zM1239 272h187v248z" />
<glyph unicode="&#xbd;" horiz-adv-x="1894" d="M101 1169l253 136h199v-703h-223v479l-148 -73zM358 0l823 1290h256l-819 -1290h-260zM1182 625q144 98 283 98t213.5 -57.5t74.5 -144.5t-30.5 -132t-76.5 -78.5t-97.5 -62.5t-94.5 -68h303v-178h-561v111q0 116 166 224q108 70 137 98t29 52q0 56 -77 56t-175 -66z" />
<glyph unicode="&#xbe;" horiz-adv-x="1894" d="M129 670l100 153q89 -63 185 -63q43 0 71.5 17.5t28.5 53.5q0 74 -113 74q-48 0 -102 -14l-43 88l223 154h-282v172h505v-156l-151 -121q180 -29 180 -213q0 -107 -94 -173q-86 -60 -221 -60q-160 0 -287 88zM444 0l823 1290h256l-819 -1290h-260zM1134 123v162l328 420 h227v-431h80v-151h-80v-121h-200v121h-355zM1302 274h187v248z" />
<glyph unicode="&#xbf;" horiz-adv-x="1077" d="M98 -63q0 155 100 253q45 42 108 89t86 73q48 58 48 137v27h281v-27q0 -221 -162 -342q-31 -23 -59.5 -44t-51.5 -43q-53 -51 -53 -109.5t51.5 -90.5t116.5 -32q146 0 271 125l180 -191q-191 -204 -471 -204q-196 0 -317 100q-128 105 -128 279zM420 645v316h321v-316 h-321z" />
<glyph unicode="&#xc0;" horiz-adv-x="1382" d="M14 0l510 1366h342l500 -1366h-338l-104 313h-482l-104 -313h-324zM360 1788h334l150 -320h-240zM514 553h336l-166 516z" />
<glyph unicode="&#xc1;" horiz-adv-x="1382" d="M14 0l510 1366h342l500 -1366h-338l-104 313h-482l-104 -313h-324zM514 553h336l-166 516zM559 1468l150 320h334l-244 -320h-240z" />
<glyph unicode="&#xc2;" horiz-adv-x="1382" d="M14 0l510 1366h342l500 -1366h-338l-104 313h-482l-104 -313h-324zM336 1468l231 320h246l232 -320h-246l-109 154l-110 -154h-244zM514 553h336l-166 516z" />
<glyph unicode="&#xc3;" horiz-adv-x="1382" d="M14 0l510 1366h342l500 -1366h-338l-104 313h-482l-104 -313h-324zM268 1651q43 47 111.5 87t131 40t96.5 -13.5t67 -30.5q85 -42 139 -42q99 0 190 75l111 -168q-124 -129 -264 -129q-59 0 -116.5 31t-90.5 44.5t-86 13.5q-83 0 -178 -76zM514 553h336l-166 516z" />
<glyph unicode="&#xc4;" horiz-adv-x="1382" d="M14 0l510 1366h342l500 -1366h-338l-104 313h-482l-104 -313h-324zM330 1503v250h270v-250h-270zM514 553h336l-166 516zM778 1503v250h271v-250h-271z" />
<glyph unicode="&#xc5;" horiz-adv-x="1382" d="M14 0l502 1348q-100 74 -100 211q0 115 81 194q80 78 197 78t199 -78t82 -205t-103 -200l494 -1348h-338l-104 313h-482l-104 -313h-324zM514 553h336l-166 516zM600 1560q0 -42 26.5 -71t68.5 -29t69 29t27 71t-27 69.5t-69 27.5t-68.5 -27.5t-26.5 -69.5z" />
<glyph unicode="&#xc6;" horiz-adv-x="1964" d="M0 0l748 1366h1095v-270h-598v-267h461v-262h-461v-295h643v-272h-940v317h-454l-164 -317h-330zM616 555h332v557h-45z" />
<glyph unicode="&#xc7;" horiz-adv-x="1394" d="M80 678q0 310 196 513q93 97 223 153.5t303.5 56.5t316.5 -69.5t237 -201.5l-211 -202q-135 190 -346 190q-183 0 -291 -126q-107 -125 -107 -306q0 -183 107 -303q110 -123 285 -123q188 0 299 116q32 34 63 68l211 -192q-144 -198 -402 -264q-87 -23 -212.5 -23 t-254 53.5t-221.5 148.5q-196 199 -196 511zM521 -442l28 148q74 -25 130.5 -25t92 10t35.5 45q0 51 -104 51q-77 0 -137 -20l26 139q79 23 178.5 23t171.5 -47t72 -140q0 -105 -89 -164q-78 -51 -172 -51q-151 0 -232 31z" />
<glyph unicode="&#xc8;" horiz-adv-x="1187" d="M133 0v1366h934v-270h-625v-267h486v-262h-486v-295h670v-272h-979zM303 1788h334l150 -320h-240z" />
<glyph unicode="&#xc9;" horiz-adv-x="1187" d="M133 0v1366h934v-270h-625v-267h486v-262h-486v-295h670v-272h-979zM477 1468l150 320h334l-244 -320h-240z" />
<glyph unicode="&#xca;" horiz-adv-x="1187" d="M133 0v1366h934v-270h-625v-267h486v-262h-486v-295h670v-272h-979zM252 1468l231 320h246l232 -320h-246l-109 154l-110 -154h-244z" />
<glyph unicode="&#xcb;" horiz-adv-x="1187" d="M133 0v1366h934v-270h-625v-267h486v-262h-486v-295h670v-272h-979zM244 1503v250h270v-250h-270zM692 1503v250h271v-250h-271z" />
<glyph unicode="&#xcc;" horiz-adv-x="575" d="M-47 1788h334l150 -320h-240zM133 0v1366h309v-1366h-309z" />
<glyph unicode="&#xcd;" horiz-adv-x="575" d="M133 0v1366h309v-1366h-309zM145 1468l150 320h334l-244 -320h-240z" />
<glyph unicode="&#xce;" horiz-adv-x="575" d="M-63 1468l231 320h246l232 -320h-246l-109 154l-110 -154h-244zM133 0v1366h309v-1366h-309z" />
<glyph unicode="&#xcf;" horiz-adv-x="575" d="M-69 1503v250h270v-250h-270zM133 0v1366h309v-1366h-309zM379 1503v250h271v-250h-271z" />
<glyph unicode="&#xd0;" horiz-adv-x="1468" d="M2 590v196h131v580h516q331 0 523 -166q206 -177 206 -524q0 -326 -208 -507q-193 -169 -523 -169h-514v590h-131zM442 274h191q205 0 315.5 107.5t110.5 296.5q0 299 -235 386q-81 30 -191 30h-191v-308h271v-196h-271v-316z" />
<glyph unicode="&#xd1;" horiz-adv-x="1458" d="M133 0v1366h295l592 -887v887h305v-1366h-281l-606 903v-903h-305zM291 1651q43 47 111.5 87t131 40t96.5 -13.5t67 -30.5q85 -42 139 -42q99 0 190 75l111 -168q-124 -129 -264 -129q-59 0 -116.5 31t-90.5 44.5t-86 13.5q-83 0 -178 -76z" />
<glyph unicode="&#xd2;" horiz-adv-x="1581" d="M80 685q0 153 54 284t149.5 227t225.5 151.5t282 55.5t281.5 -55.5t225.5 -151.5q203 -205 203 -512q0 -152 -54 -284t-149.5 -228t-225 -151.5t-281.5 -55.5t-282 55.5t-225.5 151.5t-149.5 228t-54 285zM401 688q0 -180 104 -303q109 -129 286 -129q174 0 283 129 q104 123 104 303q0 181 -104 302q-107 126 -283 126q-179 0 -286 -126q-104 -121 -104 -302zM461 1788h334l150 -320h-240z" />
<glyph unicode="&#xd3;" horiz-adv-x="1581" d="M80 685q0 153 54 284t149.5 227t225.5 151.5t282 55.5t281.5 -55.5t225.5 -151.5q203 -205 203 -512q0 -152 -54 -284t-149.5 -228t-225 -151.5t-281.5 -55.5t-282 55.5t-225.5 151.5t-149.5 228t-54 285zM401 688q0 -180 104 -303q109 -129 286 -129q174 0 283 129 q104 123 104 303q0 181 -104 302q-107 126 -283 126q-179 0 -286 -126q-104 -121 -104 -302zM635 1468l150 320h334l-244 -320h-240z" />
<glyph unicode="&#xd4;" horiz-adv-x="1581" d="M80 685q0 153 54 284t149.5 227t225.5 151.5t282 55.5t281.5 -55.5t225.5 -151.5q203 -205 203 -512q0 -152 -54 -284t-149.5 -228t-225 -151.5t-281.5 -55.5t-282 55.5t-225.5 151.5t-149.5 228t-54 285zM401 688q0 -180 104 -303q109 -129 286 -129q174 0 283 129 q104 123 104 303q0 181 -104 302q-107 126 -283 126q-179 0 -286 -126q-104 -121 -104 -302zM436 1468l231 320h246l232 -320h-246l-109 154l-110 -154h-244z" />
<glyph unicode="&#xd5;" horiz-adv-x="1581" d="M80 685q0 153 54 284t149.5 227t225.5 151.5t282 55.5t281.5 -55.5t225.5 -151.5q203 -205 203 -512q0 -152 -54 -284t-149.5 -228t-225 -151.5t-281.5 -55.5t-282 55.5t-225.5 151.5t-149.5 228t-54 285zM368 1651q43 47 111.5 87t131 40t96.5 -13.5t67 -30.5 q85 -42 139 -42q99 0 190 75l111 -168q-124 -129 -264 -129q-59 0 -116.5 31t-90.5 44.5t-86 13.5q-83 0 -178 -76zM401 688q0 -180 104 -303q109 -129 286 -129q174 0 283 129q104 123 104 303q0 181 -104 302q-107 126 -283 126q-179 0 -286 -126q-104 -121 -104 -302z " />
<glyph unicode="&#xd6;" horiz-adv-x="1581" d="M80 685q0 153 54 284t149.5 227t225.5 151.5t282 55.5t281.5 -55.5t225.5 -151.5q203 -205 203 -512q0 -152 -54 -284t-149.5 -228t-225 -151.5t-281.5 -55.5t-282 55.5t-225.5 151.5t-149.5 228t-54 285zM401 688q0 -180 104 -303q109 -129 286 -129q174 0 283 129 q104 123 104 303q0 181 -104 302q-107 126 -283 126q-179 0 -286 -126q-104 -121 -104 -302zM430 1503v250h270v-250h-270zM878 1503v250h271v-250h-271z" />
<glyph unicode="&#xd7;" d="M154 412l237 239l-235 238l166 166l237 -238l240 240l164 -166l-238 -240l236 -235l-166 -168l-238 237l-238 -239z" />
<glyph unicode="&#xd8;" horiz-adv-x="1581" d="M80 677q0 157 54 288t149.5 227t225.5 151.5t294 55.5t311 -76l117 170l172 -111l-121 -176q219 -210 219 -526q0 -152 -54 -284t-149.5 -228t-225.5 -151.5t-292.5 -55.5t-310.5 72l-115 -166l-172 110l119 173q-104 98 -162.5 234t-58.5 293zM401 694.5 q0 -170.5 80 -284.5l465 671q-72 31 -158.5 31t-159.5 -34t-123 -92q-104 -121 -104 -291.5zM641 283q63 -31 151.5 -31t160 35t121.5 94q104 123 104 288t-76 279z" />
<glyph unicode="&#xd9;" horiz-adv-x="1392" d="M123 518v848h311v-809q0 -297 261 -297t261 297v809h314v-848q0 -251 -155 -400q-160 -155 -419 -155q-263 0 -418 153t-155 402zM389 1788h334l150 -320h-240z" />
<glyph unicode="&#xda;" horiz-adv-x="1392" d="M123 518v848h311v-809q0 -297 261 -297t261 297v809h314v-848q0 -251 -155 -400q-160 -155 -419 -155q-263 0 -418 153t-155 402zM549 1468l150 320h334l-244 -320h-240z" />
<glyph unicode="&#xdb;" horiz-adv-x="1392" d="M123 518v848h311v-809q0 -297 261 -297t261 297v809h314v-848q0 -251 -155 -400q-160 -155 -419 -155q-263 0 -418 153t-155 402zM342 1468l231 320h246l232 -320h-246l-109 154l-110 -154h-244z" />
<glyph unicode="&#xdc;" horiz-adv-x="1392" d="M123 518v848h311v-809q0 -297 261 -297t261 297v809h314v-848q0 -251 -155 -400q-160 -155 -419 -155q-263 0 -418 153t-155 402zM336 1503v250h270v-250h-270zM784 1503v250h271v-250h-271z" />
<glyph unicode="&#xdd;" horiz-adv-x="1302" d="M14 1366h351l297 -516l288 516h336l-479 -793v-573h-313v571zM536 1468l150 320h334l-244 -320h-240z" />
<glyph unicode="&#xde;" horiz-adv-x="1183" d="M133 0v1366h301v-223h197q235 0 365 -135q114 -117 114 -303q0 -214 -140 -335q-131 -112 -325 -112h-211v-258h-301zM434 510h180q86 0 136.5 51t50.5 137t-51.5 139.5t-137.5 53.5h-178v-381z" />
<glyph unicode="&#xdf;" horiz-adv-x="1265" d="M104 0v956q0 229 140 342q125 103 358 103q176 0 292 -82q130 -92 130 -248q0 -118 -96 -232q-37 -44 -67 -79t-30 -68t36 -53.5t91.5 -37.5t100.5 -39.5t79 -58.5q70 -76 70 -214q0 -149 -114 -235q-108 -83 -275 -83q-215 0 -346 105l150 198q82 -69 174 -69 q131 0 131 82q0 47 -41 74.5t-107.5 50t-103.5 41t-66 47.5q-65 62 -65 176q0 63 29.5 113.5t66.5 93.5t66.5 80.5t29.5 85.5t-40 82t-125.5 34t-129 -62.5t-43.5 -156.5v-946h-295z" />
<glyph unicode="&#xe0;" horiz-adv-x="1054" d="M51 268q0 165 127 259q121 89 316 89q138 0 172 -8v21q0 67 -56 105q-46 32 -129 32q-156 0 -272 -80l-121 180q171 127 412 127t345.5 -117.5t104.5 -316.5v-559h-276l-8 90q-102 -119 -291 -119q-123 0 -212 63q-112 79 -112 234zM270 1397h293l98 -291h-217zM336 299 q0 -119 143 -119q74 0 129 44q58 47 58 122v78q-40 8 -105 8q-225 0 -225 -133z" />
<glyph unicode="&#xe1;" horiz-adv-x="1054" d="M51 268q0 165 127 259q121 89 316 89q138 0 172 -8v21q0 67 -56 105q-46 32 -129 32q-156 0 -272 -80l-121 180q171 127 412 127t345.5 -117.5t104.5 -316.5v-559h-276l-8 90q-102 -119 -291 -119q-123 0 -212 63q-112 79 -112 234zM336 299q0 -119 143 -119q74 0 129 44 q58 47 58 122v78q-40 8 -105 8q-225 0 -225 -133zM393 1106l98 291h291l-172 -291h-217z" />
<glyph unicode="&#xe2;" horiz-adv-x="1054" d="M51 268q0 165 127 259q121 89 316 89q138 0 172 -8v21q0 67 -56 105q-46 32 -129 32q-156 0 -272 -80l-121 180q171 127 412 127t345.5 -117.5t104.5 -316.5v-559h-276l-8 90q-102 -119 -291 -119q-123 0 -212 63q-112 79 -112 234zM178 1106l217 291h248l217 -291h-244 l-98 135l-97 -135h-243zM336 299q0 -119 143 -119q74 0 129 44q58 47 58 122v78q-40 8 -105 8q-225 0 -225 -133z" />
<glyph unicode="&#xe3;" horiz-adv-x="1054" d="M51 268q0 165 127 259q121 89 316 89q138 0 172 -8v21q0 67 -56 105q-46 32 -129 32q-156 0 -272 -80l-121 180q171 127 412 127t345.5 -117.5t104.5 -316.5v-559h-276l-8 90q-102 -119 -291 -119q-123 0 -212 63q-112 79 -112 234zM106 1270q41 45 107.5 84t126 39 t93.5 -13.5t64 -29.5q79 -43 138 -43t103 24.5t79 50.5l104 -161q-41 -45 -107.5 -85t-127 -40t-93 13t-63.5 29q-82 44 -139 44q-84 0 -180 -74zM336 299q0 -119 143 -119q74 0 129 44q58 47 58 122v78q-40 8 -105 8q-225 0 -225 -133z" />
<glyph unicode="&#xe4;" horiz-adv-x="1054" d="M51 268q0 165 127 259q121 89 316 89q138 0 172 -8v21q0 67 -56 105q-46 32 -129 32q-156 0 -272 -80l-121 180q171 127 412 127t345.5 -117.5t104.5 -316.5v-559h-276l-8 90q-102 -119 -291 -119q-123 0 -212 63q-112 79 -112 234zM205 1135v233h252v-233h-252zM336 299 q0 -119 143 -119q74 0 129 44q58 47 58 122v78q-40 8 -105 8q-225 0 -225 -133zM600 1135v233h252v-233h-252z" />
<glyph unicode="&#xe5;" horiz-adv-x="1054" d="M51 268q0 165 127 259q121 89 316 89q138 0 172 -8v21q0 67 -56 105q-46 32 -129 32q-156 0 -272 -80l-121 180q171 127 412 127t345.5 -117.5t104.5 -316.5v-559h-276l-8 90q-102 -119 -291 -119q-123 0 -212 63q-112 79 -112 234zM280 1321q0 102 73 171q71 67 173 67 q104 0 175 -67q73 -69 73 -171q0 -100 -73 -169t-173 -69q-102 0 -175 69t-73 169zM336 299q0 -119 143 -119q74 0 129 44q58 47 58 122v78q-40 8 -105 8q-225 0 -225 -133zM444 1321q0 -35 23.5 -59.5t58.5 -24.5t59.5 24.5t24.5 59.5t-23.5 59.5t-58.5 24.5t-59.5 -24.5 t-24.5 -59.5z" />
<glyph unicode="&#xe6;" horiz-adv-x="1683" d="M51 272q0 163 127 253q118 83 316 83q88 0 172 -8v29q0 74 -56.5 105.5t-136.5 31.5q-148 0 -264 -80l-121 180q171 127 402.5 127t340.5 -123q115 123 326 123q223 0 347 -155q118 -145 118 -396v-49h-684q0 -77 70 -135q71 -59 184 -59q170 0 291 92l119 -187 q-16 -10 -49 -33.5t-85 -46.5q-131 -57 -286 -57q-248 0 -385 152q-80 -82 -169 -116t-185.5 -34t-162 16.5t-116.5 52.5q-113 80 -113 234zM332 299q0 -57 38 -88t112.5 -31t129 43t54.5 123v70q-31 6 -123 6q-211 0 -211 -123zM938 582h408q0 71 -50 124q-53 58 -149 58 q-94 0 -155 -62q-54 -53 -54 -120z" />
<glyph unicode="&#xe7;" horiz-adv-x="997" d="M66 481q0 215 146 363q148 149 372 149q243 0 389 -157l-178 -193q-33 37 -80 65.5t-112.5 28.5t-107.5 -21.5t-72 -55.5q-61 -71 -61 -179q0 -102 61 -175q68 -81 179 -81t197 94l172 -192q-59 -66 -156.5 -113t-222.5 -47t-220.5 38t-163.5 107q-142 144 -142 369z M326 -440l28 146q83 -27 144 -27q114 0 114 61q0 56 -106 56q-74 0 -135 -25l26 139q102 25 189 25t157 -48t70 -143q0 -105 -86 -164q-79 -53 -172 -53q-143 0 -229 33z" />
<glyph unicode="&#xe8;" horiz-adv-x="1095" d="M66 483q0 214 130 357q141 153 365 153q225 0 353 -155q122 -145 122 -396v-49h-684q2 -78 68.5 -136t183.5 -58q170 0 291 92l121 -187q-16 -10 -49 -33.5t-85 -46.5q-135 -57 -273 -57t-236.5 38t-166.5 105q-140 138 -140 373zM303 1397h293l98 -291h-217zM352 582 h406q0 67 -50 120q-56 62 -149 62q-95 0 -155 -62q-52 -54 -52 -120z" />
<glyph unicode="&#xe9;" horiz-adv-x="1095" d="M66 483q0 214 130 357q141 153 365 153q225 0 353 -155q122 -145 122 -396v-49h-684q2 -78 68.5 -136t183.5 -58q170 0 291 92l121 -187q-16 -10 -49 -33.5t-85 -46.5q-135 -57 -273 -57t-236.5 38t-166.5 105q-140 138 -140 373zM352 582h406q0 67 -50 120 q-56 62 -149 62q-95 0 -155 -62q-52 -54 -52 -120zM445 1106l98 291h291l-172 -291h-217z" />
<glyph unicode="&#xea;" horiz-adv-x="1095" d="M66 483q0 214 130 357q141 153 365 153q225 0 353 -155q122 -145 122 -396v-49h-684q2 -78 68.5 -136t183.5 -58q170 0 291 92l121 -187q-16 -10 -49 -33.5t-85 -46.5q-135 -57 -273 -57t-236.5 38t-166.5 105q-140 138 -140 373zM211 1106l217 291h248l217 -291h-244 l-98 135l-97 -135h-243zM352 582h406q0 67 -50 120q-56 62 -149 62q-95 0 -155 -62q-52 -54 -52 -120z" />
<glyph unicode="&#xeb;" horiz-adv-x="1095" d="M66 483q0 214 130 357q141 153 365 153q225 0 353 -155q122 -145 122 -396v-49h-684q2 -78 68.5 -136t183.5 -58q170 0 291 92l121 -187q-16 -10 -49 -33.5t-85 -46.5q-135 -57 -273 -57t-236.5 38t-166.5 105q-140 138 -140 373zM228 1135v233h252v-233h-252zM352 582 h406q0 67 -50 120q-56 62 -149 62q-95 0 -155 -62q-52 -54 -52 -120zM623 1135v233h252v-233h-252z" />
<glyph unicode="&#xec;" horiz-adv-x="528" d="M-10 1397h293l98 -291h-217zM117 0v961h295v-961h-295z" />
<glyph unicode="&#xed;" horiz-adv-x="528" d="M117 0v961h295v-961h-295zM150 1106l98 291h291l-172 -291h-217z" />
<glyph unicode="&#xee;" horiz-adv-x="528" d="M-73 1106l217 291h248l217 -291h-244l-98 135l-97 -135h-243zM117 0v961h295v-961h-295z" />
<glyph unicode="&#xef;" horiz-adv-x="528" d="M-57 1135v233h252v-233h-252zM117 0v961h295v-961h-295zM338 1135v233h252v-233h-252z" />
<glyph unicode="&#xf0;" horiz-adv-x="1144" d="M66 449q0 198 140 335q137 136 339 136q97 0 190 -31q-64 141 -211 221l-96 -143l-133 88l76 112q-64 18 -154 27l37 201q133 -10 244 -37l84 123l133 -86l-62 -92q424 -199 424 -736q0 -288 -147 -447q-142 -153 -379 -153q-208 0 -343 129q-142 135 -142 353z M352 458.5q0 -103.5 59.5 -169.5t155.5 -66t160 78t64 225q0 65 -13 115q-90 49 -160.5 49t-115.5 -15.5t-78 -46.5q-72 -66 -72 -169.5z" />
<glyph unicode="&#xf1;" horiz-adv-x="1150" d="M111 0v961h282l8 -105q47 57 124 92t161 35q166 0 263.5 -98.5t97.5 -290.5v-594h-295v553q0 80 -40 127t-100.5 47t-97.5 -17.5t-62 -45.5q-49 -58 -49 -148v-516h-292zM159 1270q41 45 107.5 84t126 39t93.5 -13.5t64 -29.5q79 -43 138 -43t103 24.5t79 50.5l104 -161 q-41 -45 -107.5 -85t-127 -40t-93 13t-63.5 29q-82 44 -139 44q-84 0 -180 -74z" />
<glyph unicode="&#xf2;" horiz-adv-x="1163" d="M66 481q0 216 142 363q146 149 374 149q225 0 370 -149q144 -148 144 -363t-144 -363q-147 -151 -370 -151q-226 0 -374 151q-142 147 -142 363zM323 1397h293l98 -291h-217zM350 481q0 -101 60 -178q61 -80 172 -80q107 0 170 80q59 73 59 178q0 169 -131 235 q-43 21 -98 21q-109 0 -172 -79q-60 -74 -60 -177z" />
<glyph unicode="&#xf3;" horiz-adv-x="1163" d="M66 481q0 216 142 363q146 149 374 149q225 0 370 -149q144 -148 144 -363t-144 -363q-147 -151 -370 -151q-226 0 -374 151q-142 147 -142 363zM350 481q0 -101 60 -178q61 -80 172 -80q107 0 170 80q59 73 59 178q0 169 -131 235q-43 21 -98 21q-109 0 -172 -79 q-60 -74 -60 -177zM451 1106l98 291h291l-172 -291h-217z" />
<glyph unicode="&#xf4;" horiz-adv-x="1163" d="M66 481q0 216 142 363q146 149 374 149q225 0 370 -149q144 -148 144 -363t-144 -363q-147 -151 -370 -151q-226 0 -374 151q-142 147 -142 363zM242 1106l217 291h248l217 -291h-244l-98 135l-97 -135h-243zM350 481q0 -101 60 -178q61 -80 172 -80q107 0 170 80 q59 73 59 178q0 169 -131 235q-43 21 -98 21q-109 0 -172 -79q-60 -74 -60 -177z" />
<glyph unicode="&#xf5;" horiz-adv-x="1163" d="M66 481q0 216 142 363q146 149 374 149q225 0 370 -149q144 -148 144 -363t-144 -363q-147 -151 -370 -151q-226 0 -374 151q-142 147 -142 363zM176 1270q41 45 107.5 84t126 39t93.5 -13.5t64 -29.5q79 -43 138 -43t103 24.5t79 50.5l104 -161q-41 -45 -107.5 -85 t-127 -40t-93 13t-63.5 29q-82 44 -139 44q-84 0 -180 -74zM350 481q0 -101 60 -178q61 -80 172 -80q107 0 170 80q59 73 59 178q0 169 -131 235q-43 21 -98 21q-109 0 -172 -79q-60 -74 -60 -177z" />
<glyph unicode="&#xf6;" horiz-adv-x="1163" d="M66 481q0 216 142 363q146 149 374 149q225 0 370 -149q144 -148 144 -363t-144 -363q-147 -151 -370 -151q-226 0 -374 151q-142 147 -142 363zM258 1135v233h252v-233h-252zM350 481q0 -101 60 -178q61 -80 172 -80q107 0 170 80q59 73 59 178q0 169 -131 235 q-43 21 -98 21q-109 0 -172 -79q-60 -74 -60 -177zM653 1135v233h252v-233h-252z" />
<glyph unicode="&#xf7;" d="M150 535v235h817v-235h-817zM428 182v242h260v-242h-260zM428 883v241h260v-241h-260z" />
<glyph unicode="&#xf8;" horiz-adv-x="1163" d="M66 481q0 216 142 363q146 149 374 149q121 0 221 -47l90 129l139 -92l-90 -131q154 -154 154 -371q0 -215 -144 -363q-147 -151 -370 -151q-121 0 -224 45l-88 -127l-139 92l88 129q-153 153 -153 375zM346 481q0 -86 35 -143l272 393q-35 12 -81.5 12t-91 -22.5 t-74.5 -58.5q-60 -75 -60 -181zM508 227q37 -10 84 -10t91 22.5t73 59.5q61 76 61 167t-35 155z" />
<glyph unicode="&#xf9;" horiz-adv-x="1148" d="M104 365v596h295v-553q0 -82 40 -129.5t101.5 -47.5t96.5 17.5t59 46.5q49 57 49 147v519h293v-961h-282l-8 102q-47 -55 -124 -91t-161 -36q-166 0 -262.5 98.5t-96.5 291.5zM323 1397h293l98 -291h-217z" />
<glyph unicode="&#xfa;" horiz-adv-x="1148" d="M104 365v596h295v-553q0 -82 40 -129.5t101.5 -47.5t96.5 17.5t59 46.5q49 57 49 147v519h293v-961h-282l-8 102q-47 -55 -124 -91t-161 -36q-166 0 -262.5 98.5t-96.5 291.5zM449 1106l98 291h291l-172 -291h-217z" />
<glyph unicode="&#xfb;" horiz-adv-x="1148" d="M104 365v596h295v-553q0 -82 40 -129.5t101.5 -47.5t96.5 17.5t59 46.5q49 57 49 147v519h293v-961h-282l-8 102q-47 -55 -124 -91t-161 -36q-166 0 -262.5 98.5t-96.5 291.5zM234 1106l217 291h248l217 -291h-244l-98 135l-97 -135h-243z" />
<glyph unicode="&#xfc;" horiz-adv-x="1148" d="M104 365v596h295v-553q0 -82 40 -129.5t101.5 -47.5t96.5 17.5t59 46.5q49 57 49 147v519h293v-961h-282l-8 102q-47 -55 -124 -91t-161 -36q-166 0 -262.5 98.5t-96.5 291.5zM254 1135v233h252v-233h-252zM649 1135v233h252v-233h-252z" />
<glyph unicode="&#xfd;" horiz-adv-x="1126" d="M10 961h336l240 -607l217 607h313l-393 -955q-33 -80 -64.5 -158.5t-77.5 -141.5q-103 -140 -280 -140q-149 0 -258 80l119 202q65 -47 115.5 -47t82 30t60.5 101l29 78zM461 1106l98 291h291l-172 -291h-217z" />
<glyph unicode="&#xfe;" horiz-adv-x="1167" d="M109 -412v1778h292v-504q47 59 123 88t166 29t170 -41t134 -108q106 -135 106 -338q0 -253 -160 -396q-141 -127 -342 -127q-70 0 -115 12.5t-82 24.5v-418h-292zM401 254q57 -39 168 -39t173.5 72.5t62.5 197.5q0 167 -108 223q-38 19 -90 19t-90 -18.5t-63 -48.5 q-53 -63 -53 -150v-256z" />
<glyph unicode="&#xff;" horiz-adv-x="1126" d="M10 961h336l240 -607l217 607h313l-393 -955q-33 -80 -64.5 -158.5t-77.5 -141.5q-103 -140 -280 -140q-149 0 -258 80l119 202q65 -47 115.5 -47t82 30t60.5 101l29 78zM244 1135v233h252v-233h-252zM639 1135v233h252v-233h-252z" />
<glyph unicode="&#x152;" horiz-adv-x="2203" d="M80 685q0 153 53 283t146.5 226t218.5 150.5t237.5 54.5t181 -16.5t123.5 -44.5q102 -51 152 -136v164h891v-270h-625v-267h488v-262h-488v-295h670v-272h-936v164q-66 -86 -174.5 -140.5t-255.5 -54.5t-271 54.5t-215.5 150.5t-143.5 227t-52 284zM401 688 q0 -180 104 -303q109 -129 286 -129q174 0 283 129q104 123 104 303q0 181 -104 302q-107 126 -286 126q-176 0 -283 -126q-104 -121 -104 -302z" />
<glyph unicode="&#x153;" horiz-adv-x="1832" d="M66 481q0 216 142 363q146 149 368.5 149t359.5 -157q134 157 362 157q232 0 358 -157q118 -149 118 -394v-49h-684q2 -78 68.5 -136t182.5 -58q170 0 291 92l121 -187q-16 -10 -49 -33.5t-85 -46.5q-133 -57 -288 -57q-249 0 -395 158q-59 -72 -151.5 -115t-205 -43 t-208 41t-163.5 110q-142 147 -142 363zM350 481q0 -101 60 -178q61 -80 172 -80q107 0 170 80q59 73 59 178q0 169 -131 235q-43 21 -98 21q-109 0 -172 -79q-60 -74 -60 -177zM1090 582h405q0 67 -49 120q-57 62 -150 62q-95 0 -154 -62q-52 -53 -52 -120z" />
<glyph unicode="&#x178;" horiz-adv-x="1302" d="M14 1366h351l297 -516l288 516h336l-479 -793v-573h-313v571zM293 1503v250h270v-250h-270zM741 1503v250h271v-250h-271z" />
<glyph unicode="&#x2c6;" horiz-adv-x="909" d="M115 1106l217 291h248l217 -291h-244l-98 135l-97 -135h-243z" />
<glyph unicode="&#x2dc;" horiz-adv-x="923" d="M53 1270q41 45 107.5 84t126 39t93.5 -13.5t64 -29.5q79 -43 138 -43t103 24.5t79 50.5l104 -161q-41 -45 -107.5 -85t-127 -40t-93 13t-63.5 29q-82 44 -139 44q-84 0 -180 -74z" />
<glyph unicode="&#x2000;" horiz-adv-x="915" />
<glyph unicode="&#x2001;" horiz-adv-x="1831" />
<glyph unicode="&#x2002;" horiz-adv-x="915" />
<glyph unicode="&#x2003;" horiz-adv-x="1831" />
<glyph unicode="&#x2004;" horiz-adv-x="610" />
<glyph unicode="&#x2005;" horiz-adv-x="457" />
<glyph unicode="&#x2006;" horiz-adv-x="305" />
<glyph unicode="&#x2007;" horiz-adv-x="305" />
<glyph unicode="&#x2008;" horiz-adv-x="228" />
<glyph unicode="&#x2009;" horiz-adv-x="366" />
<glyph unicode="&#x200a;" horiz-adv-x="101" />
<glyph unicode="&#x2010;" horiz-adv-x="911" d="M131 432v281h649v-281h-649z" />
<glyph unicode="&#x2011;" horiz-adv-x="911" d="M131 432v281h649v-281h-649z" />
<glyph unicode="&#x2012;" horiz-adv-x="911" d="M131 432v281h649v-281h-649z" />
<glyph unicode="&#x2013;" horiz-adv-x="1024" d="M0 432v281h1024v-281h-1024z" />
<glyph unicode="&#x2014;" horiz-adv-x="2048" d="M0 432v281h2048v-281h-2048z" />
<glyph unicode="&#x2018;" horiz-adv-x="575" d="M90 895l148 469h219l-49 -469h-318z" />
<glyph unicode="&#x2019;" horiz-adv-x="575" d="M117 895l49 469h319l-149 -469h-219z" />
<glyph unicode="&#x201a;" horiz-adv-x="575" d="M117 -156l49 469h319l-149 -469h-219z" />
<glyph unicode="&#x201c;" horiz-adv-x="999" d="M90 895l148 469h219l-49 -469h-318zM512 895l148 469h219l-49 -469h-318z" />
<glyph unicode="&#x201d;" horiz-adv-x="999" d="M117 895l49 469h319l-149 -469h-219zM539 895l49 469h319l-149 -469h-219z" />
<glyph unicode="&#x201e;" horiz-adv-x="997" d="M117 -156l49 469h319l-149 -469h-219zM539 -156l49 469h319l-149 -469h-219z" />
<glyph unicode="&#x2022;" horiz-adv-x="899" d="M156 690q0 123 85 208t208 85q122 0 207 -85q87 -87 87 -208t-87 -208q-85 -85 -207 -85q-123 0 -208 85t-85 208z" />
<glyph unicode="&#x2026;" horiz-adv-x="1751" d="M125 0v326h334v-326h-334zM709 0v326h334v-326h-334zM1292 0v326h334v-326h-334z" />
<glyph unicode="&#x202f;" horiz-adv-x="366" />
<glyph unicode="&#x2039;" horiz-adv-x="729" d="M109 494l213 403h290l-209 -403l209 -404h-290z" />
<glyph unicode="&#x203a;" horiz-adv-x="729" d="M117 90l209 404l-209 403h291l213 -403l-213 -404h-291z" />
<glyph unicode="&#x205f;" horiz-adv-x="457" />
<glyph unicode="&#x20ac;" d="M25 414l57 164h117q-2 18 -2 36v101h-158l55 166h127q82 316 333 413q87 33 200 33q226 0 368 -156l-153 -196q-82 88 -190.5 88t-165 -51t-85.5 -131h344l-55 -166h-319q-2 -16 -2 -31v-70q0 -18 2 -36h352l-57 -164h-261q65 -176 230 -176q127 0 209 86l151 -195 q-144 -156 -372 -156q-208 0 -346 125q-127 116 -179 316h-200z" />
<glyph unicode="&#x2122;" horiz-adv-x="1798" d="M61 1176v190h732v-190h-254v-594h-224v594h-254zM856 582l31 784h192l203 -330l203 330h198l31 -784h-207l-16 460l-160 -270h-100l-160 260l-14 -450h-201z" />
<glyph unicode="&#xe000;" horiz-adv-x="962" d="M0 0v963h963v-963h-963z" />
</font>
</defs>
</svg>
